<svg id="Capa_1" data-name="Capa 1" xmlns="http://www.w3.org/2000/svg" viewBox="0 0 536.92 346.19"><defs><style>.cls-1{fill:#1d1d1b;}.cls-2{fill:#fff;}</style></defs><path class="cls-1" d="M109.26,276.75a10.33,10.33,0,0,1-1.61,6,4.74,4.74,0,0,1-4.06,2.35c-2.53,0-4.64-2.21-6.34-6.66a63.89,63.89,0,0,1-3-10.54,53.5,53.5,0,0,1-1.11-10.34,12.19,12.19,0,0,1,1.38-6.3A4.28,4.28,0,0,1,98.37,249q4,.17,6.46,6.19A57.3,57.3,0,0,1,108,265.87,55,55,0,0,1,109.26,276.75Z"/><path class="cls-1" d="M151.32,264a26.7,26.7,0,0,0-1.62-3.37c-.38-.57-.78-.85-1.19-.85-.74,0-1.37.94-1.87,2.86-.08.25-.37,1.26-.9,3a31.64,31.64,0,0,0-1.3,5.21c0,.7.48,1.07,1.43,1.07H152c1.11,0,1.67-.34,1.67-1Q153.64,269.49,151.32,264Zm0,0a26.7,26.7,0,0,0-1.62-3.37c-.38-.57-.78-.85-1.19-.85-.74,0-1.37.94-1.87,2.86-.08.25-.37,1.26-.9,3a31.64,31.64,0,0,0-1.3,5.21c0,.7.48,1.07,1.43,1.07H152c1.11,0,1.67-.34,1.67-1Q153.64,269.49,151.32,264Zm0,0a26.7,26.7,0,0,0-1.62-3.37c-.38-.57-.78-.85-1.19-.85-.74,0-1.37.94-1.87,2.86-.08.25-.37,1.26-.9,3a31.64,31.64,0,0,0-1.3,5.21c0,.7.48,1.07,1.43,1.07H152c1.11,0,1.67-.34,1.67-1Q153.64,269.49,151.32,264Zm161,4.44a3.5,3.5,0,0,0-2.77-2,2.49,2.49,0,0,0-2.41,1.57,12.74,12.74,0,0,0-.6,4.87,112.43,112.43,0,0,0,.51,13.54c.28,2.17,1.16,3.25,2.63,3.25s2.67-.89,3.45-2.66a19.44,19.44,0,0,0,1.19-7.68Q314.36,271.83,312.36,268.42Zm0,0a3.5,3.5,0,0,0-2.77-2,2.49,2.49,0,0,0-2.41,1.57,12.74,12.74,0,0,0-.6,4.87,112.43,112.43,0,0,0,.51,13.54c.28,2.17,1.16,3.25,2.63,3.25s2.67-.89,3.45-2.66a19.44,19.44,0,0,0,1.19-7.68Q314.36,271.83,312.36,268.42Zm-161-4.44a26.7,26.7,0,0,0-1.62-3.37c-.38-.57-.78-.85-1.19-.85-.74,0-1.37.94-1.87,2.86-.08.25-.37,1.26-.9,3a31.64,31.64,0,0,0-1.3,5.21c0,.7.48,1.07,1.43,1.07H152c1.11,0,1.67-.34,1.67-1Q153.64,269.49,151.32,264Zm0,0a26.7,26.7,0,0,0-1.62-3.37c-.38-.57-.78-.85-1.19-.85-.74,0-1.37.94-1.87,2.86-.08.25-.37,1.26-.9,3a31.64,31.64,0,0,0-1.3,5.21c0,.7.48,1.07,1.43,1.07H152c1.11,0,1.67-.34,1.67-1Q153.64,269.49,151.32,264Zm161,4.44a3.5,3.5,0,0,0-2.77-2,2.49,2.49,0,0,0-2.41,1.57,12.74,12.74,0,0,0-.6,4.87,112.43,112.43,0,0,0,.51,13.54c.28,2.17,1.16,3.25,2.63,3.25s2.67-.89,3.45-2.66a19.44,19.44,0,0,0,1.19-7.68Q314.36,271.83,312.36,268.42Zm59-20.45a4.74,4.74,0,0,0-3.6-1.58c-1.54,0-2.3.55-2.3,1.66v14.52c0,1.12.18,1.78.53,2a4,4,0,0,0,2.27.6,4.4,4.4,0,0,0,3.44-1.58c1.36-1.51,2-4.05,2-7.61S372.94,249.62,371.36,248Zm0,0a4.74,4.74,0,0,0-3.6-1.58c-1.54,0-2.3.55-2.3,1.66v14.52c0,1.12.18,1.78.53,2a4,4,0,0,0,2.27.6,4.4,4.4,0,0,0,3.44-1.58c1.36-1.51,2-4.05,2-7.61S372.94,249.62,371.36,248Zm-59,20.45a3.5,3.5,0,0,0-2.77-2,2.49,2.49,0,0,0-2.41,1.57,12.74,12.74,0,0,0-.6,4.87,112.43,112.43,0,0,0,.51,13.54c.28,2.17,1.16,3.25,2.63,3.25s2.67-.89,3.45-2.66a19.44,19.44,0,0,0,1.19-7.68Q314.36,271.83,312.36,268.42Zm-161-4.44a26.7,26.7,0,0,0-1.62-3.37c-.38-.57-.78-.85-1.19-.85-.74,0-1.37.94-1.87,2.86-.08.25-.37,1.26-.9,3a31.64,31.64,0,0,0-1.3,5.21c0,.7.48,1.07,1.43,1.07H152c1.11,0,1.67-.34,1.67-1Q153.64,269.49,151.32,264Zm0,0a26.7,26.7,0,0,0-1.62-3.37c-.38-.57-.78-.85-1.19-.85-.74,0-1.37.94-1.87,2.86-.08.25-.37,1.26-.9,3a31.64,31.64,0,0,0-1.3,5.21c0,.7.48,1.07,1.43,1.07H152c1.11,0,1.67-.34,1.67-1Q153.64,269.49,151.32,264Zm161,4.44a3.5,3.5,0,0,0-2.77-2,2.49,2.49,0,0,0-2.41,1.57,12.74,12.74,0,0,0-.6,4.87,112.43,112.43,0,0,0,.51,13.54c.28,2.17,1.16,3.25,2.63,3.25s2.67-.89,3.45-2.66a19.44,19.44,0,0,0,1.19-7.68Q314.36,271.83,312.36,268.42Zm59-20.45a4.74,4.74,0,0,0-3.6-1.58c-1.54,0-2.3.55-2.3,1.66v14.52c0,1.12.18,1.78.53,2a4,4,0,0,0,2.27.6,4.4,4.4,0,0,0,3.44-1.58c1.36-1.51,2-4.05,2-7.61S372.94,249.62,371.36,248Zm72.92,25.79a43.77,43.77,0,0,0-1.69-7.43c-.69-1.94-1.64-2.93-2.86-3a2.48,2.48,0,0,0-2.2,1.38,7.16,7.16,0,0,0-.82,3.69,49.7,49.7,0,0,0,.69,7,69.64,69.64,0,0,0,1.67,7.83c.65,2.33,1.68,3.51,3.14,3.51,1.85,0,2.76-1.62,2.76-4.84A55.23,55.23,0,0,0,444.28,273.76Zm0,0a43.77,43.77,0,0,0-1.69-7.43c-.69-1.94-1.64-2.93-2.86-3a2.48,2.48,0,0,0-2.2,1.38,7.16,7.16,0,0,0-.82,3.69,49.7,49.7,0,0,0,.69,7,69.64,69.64,0,0,0,1.67,7.83c.65,2.33,1.68,3.51,3.14,3.51,1.85,0,2.76-1.62,2.76-4.84A55.23,55.23,0,0,0,444.28,273.76ZM371.36,248a4.74,4.74,0,0,0-3.6-1.58c-1.54,0-2.3.55-2.3,1.66v14.52c0,1.12.18,1.78.53,2a4,4,0,0,0,2.27.6,4.4,4.4,0,0,0,3.44-1.58c1.36-1.51,2-4.05,2-7.61S372.94,249.62,371.36,248Zm-59,20.45a3.5,3.5,0,0,0-2.77-2,2.49,2.49,0,0,0-2.41,1.57,12.74,12.74,0,0,0-.6,4.87,112.43,112.43,0,0,0,.51,13.54c.28,2.17,1.16,3.25,2.63,3.25s2.67-.89,3.45-2.66a19.44,19.44,0,0,0,1.19-7.68Q314.36,271.83,312.36,268.42Zm-161-4.44a26.7,26.7,0,0,0-1.62-3.37c-.38-.57-.78-.85-1.19-.85-.74,0-1.37.94-1.87,2.86-.08.25-.37,1.26-.9,3a31.64,31.64,0,0,0-1.3,5.21c0,.7.48,1.07,1.43,1.07H152c1.11,0,1.67-.34,1.67-1Q153.64,269.49,151.32,264Zm0,0a26.7,26.7,0,0,0-1.62-3.37c-.38-.57-.78-.85-1.19-.85-.74,0-1.37.94-1.87,2.86-.08.25-.37,1.26-.9,3a31.64,31.64,0,0,0-1.3,5.21c0,.7.48,1.07,1.43,1.07H152c1.11,0,1.67-.34,1.67-1Q153.64,269.49,151.32,264Zm161,4.44a3.5,3.5,0,0,0-2.77-2,2.49,2.49,0,0,0-2.41,1.57,12.74,12.74,0,0,0-.6,4.87,112.43,112.43,0,0,0,.51,13.54c.28,2.17,1.16,3.25,2.63,3.25s2.67-.89,3.45-2.66a19.44,19.44,0,0,0,1.19-7.68Q314.36,271.83,312.36,268.42Zm59-20.45a4.74,4.74,0,0,0-3.6-1.58c-1.54,0-2.3.55-2.3,1.66v14.52c0,1.12.18,1.78.53,2a4,4,0,0,0,2.27.6,4.4,4.4,0,0,0,3.44-1.58c1.36-1.51,2-4.05,2-7.61S372.94,249.62,371.36,248Zm72.92,25.79a43.77,43.77,0,0,0-1.69-7.43c-.69-1.94-1.64-2.93-2.86-3a2.48,2.48,0,0,0-2.2,1.38,7.16,7.16,0,0,0-.82,3.69,49.7,49.7,0,0,0,.69,7,69.64,69.64,0,0,0,1.67,7.83c.65,2.33,1.68,3.51,3.14,3.51,1.85,0,2.76-1.62,2.76-4.84A55.23,55.23,0,0,0,444.28,273.76Zm0,0a43.77,43.77,0,0,0-1.69-7.43c-.69-1.94-1.64-2.93-2.86-3a2.48,2.48,0,0,0-2.2,1.38,7.16,7.16,0,0,0-.82,3.69,49.7,49.7,0,0,0,.69,7,69.64,69.64,0,0,0,1.67,7.83c.65,2.33,1.68,3.51,3.14,3.51,1.85,0,2.76-1.62,2.76-4.84A55.23,55.23,0,0,0,444.28,273.76ZM371.36,248a4.74,4.74,0,0,0-3.6-1.58c-1.54,0-2.3.55-2.3,1.66v14.52c0,1.12.18,1.78.53,2a4,4,0,0,0,2.27.6,4.4,4.4,0,0,0,3.44-1.58c1.36-1.51,2-4.05,2-7.61S372.94,249.62,371.36,248Zm-59,20.45a3.5,3.5,0,0,0-2.77-2,2.49,2.49,0,0,0-2.41,1.57,12.74,12.74,0,0,0-.6,4.87,112.43,112.43,0,0,0,.51,13.54c.28,2.17,1.16,3.25,2.63,3.25s2.67-.89,3.45-2.66a19.44,19.44,0,0,0,1.19-7.68Q314.36,271.83,312.36,268.42Zm-161-4.44a26.7,26.7,0,0,0-1.62-3.37c-.38-.57-.78-.85-1.19-.85-.74,0-1.37.94-1.87,2.86-.08.25-.37,1.26-.9,3a31.64,31.64,0,0,0-1.3,5.21c0,.7.48,1.07,1.43,1.07H152c1.11,0,1.67-.34,1.67-1Q153.64,269.49,151.32,264Zm0,0a26.7,26.7,0,0,0-1.62-3.37c-.38-.57-.78-.85-1.19-.85-.74,0-1.37.94-1.87,2.86-.08.25-.37,1.26-.9,3a31.64,31.64,0,0,0-1.3,5.21c0,.7.48,1.07,1.43,1.07H152c1.11,0,1.67-.34,1.67-1Q153.64,269.49,151.32,264Zm161,4.44a3.5,3.5,0,0,0-2.77-2,2.49,2.49,0,0,0-2.41,1.57,12.74,12.74,0,0,0-.6,4.87,112.43,112.43,0,0,0,.51,13.54c.28,2.17,1.16,3.25,2.63,3.25s2.67-.89,3.45-2.66a19.44,19.44,0,0,0,1.19-7.68Q314.36,271.83,312.36,268.42Zm59-20.45a4.74,4.74,0,0,0-3.6-1.58c-1.54,0-2.3.55-2.3,1.66v14.52c0,1.12.18,1.78.53,2a4,4,0,0,0,2.27.6,4.4,4.4,0,0,0,3.44-1.58c1.36-1.51,2-4.05,2-7.61S372.94,249.62,371.36,248Zm72.92,25.79a43.77,43.77,0,0,0-1.69-7.43c-.69-1.94-1.64-2.93-2.86-3a2.48,2.48,0,0,0-2.2,1.38,7.16,7.16,0,0,0-.82,3.69,49.7,49.7,0,0,0,.69,7,69.64,69.64,0,0,0,1.67,7.83c.65,2.33,1.68,3.51,3.14,3.51,1.85,0,2.76-1.62,2.76-4.84A55.23,55.23,0,0,0,444.28,273.76Zm0,0a43.77,43.77,0,0,0-1.69-7.43c-.69-1.94-1.64-2.93-2.86-3a2.48,2.48,0,0,0-2.2,1.38,7.16,7.16,0,0,0-.82,3.69,49.7,49.7,0,0,0,.69,7,69.64,69.64,0,0,0,1.67,7.83c.65,2.33,1.68,3.51,3.14,3.51,1.85,0,2.76-1.62,2.76-4.84A55.23,55.23,0,0,0,444.28,273.76ZM371.36,248a4.74,4.74,0,0,0-3.6-1.58c-1.54,0-2.3.55-2.3,1.66v14.52c0,1.12.18,1.78.53,2a4,4,0,0,0,2.27.6,4.4,4.4,0,0,0,3.44-1.58c1.36-1.51,2-4.05,2-7.61S372.94,249.62,371.36,248Zm-59,20.45a3.5,3.5,0,0,0-2.77-2,2.49,2.49,0,0,0-2.41,1.57,12.74,12.74,0,0,0-.6,4.87,112.43,112.43,0,0,0,.51,13.54c.28,2.17,1.16,3.25,2.63,3.25s2.67-.89,3.45-2.66a19.44,19.44,0,0,0,1.19-7.68Q314.36,271.83,312.36,268.42Zm-161-4.44a26.7,26.7,0,0,0-1.62-3.37c-.38-.57-.78-.85-1.19-.85-.74,0-1.37.94-1.87,2.86-.08.25-.37,1.26-.9,3a31.64,31.64,0,0,0-1.3,5.21c0,.7.48,1.07,1.43,1.07H152c1.11,0,1.67-.34,1.67-1Q153.64,269.49,151.32,264Zm0,0a26.7,26.7,0,0,0-1.62-3.37c-.38-.57-.78-.85-1.19-.85-.74,0-1.37.94-1.87,2.86-.08.25-.37,1.26-.9,3a31.64,31.64,0,0,0-1.3,5.21c0,.7.48,1.07,1.43,1.07H152c1.11,0,1.67-.34,1.67-1Q153.64,269.49,151.32,264Zm161,4.44a3.5,3.5,0,0,0-2.77-2,2.49,2.49,0,0,0-2.41,1.57,12.74,12.74,0,0,0-.6,4.87,112.43,112.43,0,0,0,.51,13.54c.28,2.17,1.16,3.25,2.63,3.25s2.67-.89,3.45-2.66a19.44,19.44,0,0,0,1.19-7.68Q314.36,271.83,312.36,268.42Zm59-20.45a4.74,4.74,0,0,0-3.6-1.58c-1.54,0-2.3.55-2.3,1.66v14.52c0,1.12.18,1.78.53,2a4,4,0,0,0,2.27.6,4.4,4.4,0,0,0,3.44-1.58c1.36-1.51,2-4.05,2-7.61S372.94,249.62,371.36,248Zm72.92,25.79a43.77,43.77,0,0,0-1.69-7.43c-.69-1.94-1.64-2.93-2.86-3a2.48,2.48,0,0,0-2.2,1.38,7.16,7.16,0,0,0-.82,3.69,49.7,49.7,0,0,0,.69,7,69.64,69.64,0,0,0,1.67,7.83c.65,2.33,1.68,3.51,3.14,3.51,1.85,0,2.76-1.62,2.76-4.84A55.23,55.23,0,0,0,444.28,273.76Zm0,0a43.77,43.77,0,0,0-1.69-7.43c-.69-1.94-1.64-2.93-2.86-3a2.48,2.48,0,0,0-2.2,1.38,7.16,7.16,0,0,0-.82,3.69,49.7,49.7,0,0,0,.69,7,69.64,69.64,0,0,0,1.67,7.83c.65,2.33,1.68,3.51,3.14,3.51,1.85,0,2.76-1.62,2.76-4.84A55.23,55.23,0,0,0,444.28,273.76ZM371.36,248a4.74,4.74,0,0,0-3.6-1.58c-1.54,0-2.3.55-2.3,1.66v14.52c0,1.12.18,1.78.53,2a4,4,0,0,0,2.27.6,4.4,4.4,0,0,0,3.44-1.58c1.36-1.51,2-4.05,2-7.61S372.94,249.62,371.36,248Zm-59,20.45a3.5,3.5,0,0,0-2.77-2,2.49,2.49,0,0,0-2.41,1.57,12.74,12.74,0,0,0-.6,4.87,112.43,112.43,0,0,0,.51,13.54c.28,2.17,1.16,3.25,2.63,3.25s2.67-.89,3.45-2.66a19.44,19.44,0,0,0,1.19-7.68Q314.36,271.83,312.36,268.42Zm-161-4.44a26.7,26.7,0,0,0-1.62-3.37c-.38-.57-.78-.85-1.19-.85-.74,0-1.37.94-1.87,2.86-.08.25-.37,1.26-.9,3a31.64,31.64,0,0,0-1.3,5.21c0,.7.48,1.07,1.43,1.07H152c1.11,0,1.67-.34,1.67-1Q153.64,269.49,151.32,264Zm0,0a26.7,26.7,0,0,0-1.62-3.37c-.38-.57-.78-.85-1.19-.85-.74,0-1.37.94-1.87,2.86-.08.25-.37,1.26-.9,3a31.64,31.64,0,0,0-1.3,5.21c0,.7.48,1.07,1.43,1.07H152c1.11,0,1.67-.34,1.67-1Q153.64,269.49,151.32,264Zm161,4.44a3.5,3.5,0,0,0-2.77-2,2.49,2.49,0,0,0-2.41,1.57,12.74,12.74,0,0,0-.6,4.87,112.43,112.43,0,0,0,.51,13.54c.28,2.17,1.16,3.25,2.63,3.25s2.67-.89,3.45-2.66a19.44,19.44,0,0,0,1.19-7.68Q314.36,271.83,312.36,268.42Zm59-20.45a4.74,4.74,0,0,0-3.6-1.58c-1.54,0-2.3.55-2.3,1.66v14.52c0,1.12.18,1.78.53,2a4,4,0,0,0,2.27.6,4.4,4.4,0,0,0,3.44-1.58c1.36-1.51,2-4.05,2-7.61S372.94,249.62,371.36,248Zm72.92,25.79a43.77,43.77,0,0,0-1.69-7.43c-.69-1.94-1.64-2.93-2.86-3a2.48,2.48,0,0,0-2.2,1.38,7.16,7.16,0,0,0-.82,3.69,49.7,49.7,0,0,0,.69,7,69.64,69.64,0,0,0,1.67,7.83c.65,2.33,1.68,3.51,3.14,3.51,1.85,0,2.76-1.62,2.76-4.84A55.23,55.23,0,0,0,444.28,273.76Zm0,0a43.77,43.77,0,0,0-1.69-7.43c-.69-1.94-1.64-2.93-2.86-3a2.48,2.48,0,0,0-2.2,1.38,7.16,7.16,0,0,0-.82,3.69,49.7,49.7,0,0,0,.69,7,69.64,69.64,0,0,0,1.67,7.83c.65,2.33,1.68,3.51,3.14,3.51,1.85,0,2.76-1.62,2.76-4.84A55.23,55.23,0,0,0,444.28,273.76ZM371.36,248a4.74,4.74,0,0,0-3.6-1.58c-1.54,0-2.3.55-2.3,1.66v14.52c0,1.12.18,1.78.53,2a4,4,0,0,0,2.27.6,4.4,4.4,0,0,0,3.44-1.58c1.36-1.51,2-4.05,2-7.61S372.94,249.62,371.36,248Zm-59,20.45a3.5,3.5,0,0,0-2.77-2,2.49,2.49,0,0,0-2.41,1.57,12.74,12.74,0,0,0-.6,4.87,112.43,112.43,0,0,0,.51,13.54c.28,2.17,1.16,3.25,2.63,3.25s2.67-.89,3.45-2.66a19.44,19.44,0,0,0,1.19-7.68Q314.36,271.83,312.36,268.42Zm-161-4.44a26.7,26.7,0,0,0-1.62-3.37c-.38-.57-.78-.85-1.19-.85-.74,0-1.37.94-1.87,2.86-.08.25-.37,1.26-.9,3a31.64,31.64,0,0,0-1.3,5.21c0,.7.48,1.07,1.43,1.07H152c1.11,0,1.67-.34,1.67-1Q153.64,269.49,151.32,264Zm0,0a26.7,26.7,0,0,0-1.62-3.37c-.38-.57-.78-.85-1.19-.85-.74,0-1.37.94-1.87,2.86-.08.25-.37,1.26-.9,3a31.64,31.64,0,0,0-1.3,5.21c0,.7.48,1.07,1.43,1.07H152c1.11,0,1.67-.34,1.67-1Q153.64,269.49,151.32,264Zm161,4.44a3.5,3.5,0,0,0-2.77-2,2.49,2.49,0,0,0-2.41,1.57,12.74,12.74,0,0,0-.6,4.87,112.43,112.43,0,0,0,.51,13.54c.28,2.17,1.16,3.25,2.63,3.25s2.67-.89,3.45-2.66a19.44,19.44,0,0,0,1.19-7.68Q314.36,271.83,312.36,268.42Zm59-20.45a4.74,4.74,0,0,0-3.6-1.58c-1.54,0-2.3.55-2.3,1.66v14.52c0,1.12.18,1.78.53,2a4,4,0,0,0,2.27.6,4.4,4.4,0,0,0,3.44-1.58c1.36-1.51,2-4.05,2-7.61S372.94,249.62,371.36,248Zm72.92,25.79a43.77,43.77,0,0,0-1.69-7.43c-.69-1.94-1.64-2.93-2.86-3a2.48,2.48,0,0,0-2.2,1.38,7.16,7.16,0,0,0-.82,3.69,49.7,49.7,0,0,0,.69,7,69.64,69.64,0,0,0,1.67,7.83c.65,2.33,1.68,3.51,3.14,3.51,1.85,0,2.76-1.62,2.76-4.84A55.23,55.23,0,0,0,444.28,273.76Zm0,0a43.77,43.77,0,0,0-1.69-7.43c-.69-1.94-1.64-2.93-2.86-3a2.48,2.48,0,0,0-2.2,1.38,7.16,7.16,0,0,0-.82,3.69,49.7,49.7,0,0,0,.69,7,69.64,69.64,0,0,0,1.67,7.83c.65,2.33,1.68,3.51,3.14,3.51,1.85,0,2.76-1.62,2.76-4.84A55.23,55.23,0,0,0,444.28,273.76ZM371.36,248a4.74,4.74,0,0,0-3.6-1.58c-1.54,0-2.3.55-2.3,1.66v14.52c0,1.12.18,1.78.53,2a4,4,0,0,0,2.27.6,4.4,4.4,0,0,0,3.44-1.58c1.36-1.51,2-4.05,2-7.61S372.94,249.62,371.36,248Zm-59,20.45a3.5,3.5,0,0,0-2.77-2,2.49,2.49,0,0,0-2.41,1.57,12.74,12.74,0,0,0-.6,4.87,112.43,112.43,0,0,0,.51,13.54c.28,2.17,1.16,3.25,2.63,3.25s2.67-.89,3.45-2.66a19.44,19.44,0,0,0,1.19-7.68Q314.36,271.83,312.36,268.42Zm-161-4.44a26.7,26.7,0,0,0-1.62-3.37c-.38-.57-.78-.85-1.19-.85-.74,0-1.37.94-1.87,2.86-.08.25-.37,1.26-.9,3a31.64,31.64,0,0,0-1.3,5.21c0,.7.48,1.07,1.43,1.07H152c1.11,0,1.67-.34,1.67-1Q153.64,269.49,151.32,264Zm0,0a26.7,26.7,0,0,0-1.62-3.37c-.38-.57-.78-.85-1.19-.85-.74,0-1.37.94-1.87,2.86-.08.25-.37,1.26-.9,3a31.64,31.64,0,0,0-1.3,5.21c0,.7.48,1.07,1.43,1.07H152c1.11,0,1.67-.34,1.67-1Q153.64,269.49,151.32,264Zm161,4.44a3.5,3.5,0,0,0-2.77-2,2.49,2.49,0,0,0-2.41,1.57,12.74,12.74,0,0,0-.6,4.87,112.43,112.43,0,0,0,.51,13.54c.28,2.17,1.16,3.25,2.63,3.25s2.67-.89,3.45-2.66a19.44,19.44,0,0,0,1.19-7.68Q314.36,271.83,312.36,268.42Zm59-20.45a4.74,4.74,0,0,0-3.6-1.58c-1.54,0-2.3.55-2.3,1.66v14.52c0,1.12.18,1.78.53,2a4,4,0,0,0,2.27.6,4.4,4.4,0,0,0,3.44-1.58c1.36-1.51,2-4.05,2-7.61S372.94,249.62,371.36,248Zm72.92,25.79a43.77,43.77,0,0,0-1.69-7.43c-.69-1.94-1.64-2.93-2.86-3a2.48,2.48,0,0,0-2.2,1.38,7.16,7.16,0,0,0-.82,3.69,49.7,49.7,0,0,0,.69,7,69.64,69.64,0,0,0,1.67,7.83c.65,2.33,1.68,3.51,3.14,3.51,1.85,0,2.76-1.62,2.76-4.84A55.23,55.23,0,0,0,444.28,273.76Zm0,0a43.77,43.77,0,0,0-1.69-7.43c-.69-1.94-1.64-2.93-2.86-3a2.48,2.48,0,0,0-2.2,1.38,7.16,7.16,0,0,0-.82,3.69,49.7,49.7,0,0,0,.69,7,69.64,69.64,0,0,0,1.67,7.83c.65,2.33,1.68,3.51,3.14,3.51,1.85,0,2.76-1.62,2.76-4.84A55.23,55.23,0,0,0,444.28,273.76ZM371.36,248a4.74,4.74,0,0,0-3.6-1.58c-1.54,0-2.3.55-2.3,1.66v14.52c0,1.12.18,1.78.53,2a4,4,0,0,0,2.27.6,4.4,4.4,0,0,0,3.44-1.58c1.36-1.51,2-4.05,2-7.61S372.94,249.62,371.36,248Zm-59,20.45a3.5,3.5,0,0,0-2.77-2,2.49,2.49,0,0,0-2.41,1.57,12.74,12.74,0,0,0-.6,4.87,112.43,112.43,0,0,0,.51,13.54c.28,2.17,1.16,3.25,2.63,3.25s2.67-.89,3.45-2.66a19.44,19.44,0,0,0,1.19-7.68Q314.36,271.83,312.36,268.42Zm-161-4.44a26.7,26.7,0,0,0-1.62-3.37c-.38-.57-.78-.85-1.19-.85-.74,0-1.37.94-1.87,2.86-.08.25-.37,1.26-.9,3a31.64,31.64,0,0,0-1.3,5.21c0,.7.48,1.07,1.43,1.07H152c1.11,0,1.67-.34,1.67-1Q153.64,269.49,151.32,264Zm0,0a26.7,26.7,0,0,0-1.62-3.37c-.38-.57-.78-.85-1.19-.85-.74,0-1.37.94-1.87,2.86-.08.25-.37,1.26-.9,3a31.64,31.64,0,0,0-1.3,5.21c0,.7.48,1.07,1.43,1.07H152c1.11,0,1.67-.34,1.67-1Q153.64,269.49,151.32,264Zm161,4.44a3.5,3.5,0,0,0-2.77-2,2.49,2.49,0,0,0-2.41,1.57,12.74,12.74,0,0,0-.6,4.87,112.43,112.43,0,0,0,.51,13.54c.28,2.17,1.16,3.25,2.63,3.25s2.67-.89,3.45-2.66a19.44,19.44,0,0,0,1.19-7.68Q314.36,271.83,312.36,268.42Zm59-20.45a4.74,4.74,0,0,0-3.6-1.58c-1.54,0-2.3.55-2.3,1.66v14.52c0,1.12.18,1.78.53,2a4,4,0,0,0,2.27.6,4.4,4.4,0,0,0,3.44-1.58c1.36-1.51,2-4.05,2-7.61S372.94,249.62,371.36,248Zm72.92,25.79a43.77,43.77,0,0,0-1.69-7.43c-.69-1.94-1.64-2.93-2.86-3a2.48,2.48,0,0,0-2.2,1.38,7.16,7.16,0,0,0-.82,3.69,49.7,49.7,0,0,0,.69,7,69.64,69.64,0,0,0,1.67,7.83c.65,2.33,1.68,3.51,3.14,3.51,1.85,0,2.76-1.62,2.76-4.84A55.23,55.23,0,0,0,444.28,273.76Zm0,0a43.77,43.77,0,0,0-1.69-7.43c-.69-1.94-1.64-2.93-2.86-3a2.48,2.48,0,0,0-2.2,1.38,7.16,7.16,0,0,0-.82,3.69,49.7,49.7,0,0,0,.69,7,69.64,69.64,0,0,0,1.67,7.83c.65,2.33,1.68,3.51,3.14,3.51,1.85,0,2.76-1.62,2.76-4.84A55.23,55.23,0,0,0,444.28,273.76ZM371.36,248a4.74,4.74,0,0,0-3.6-1.58c-1.54,0-2.3.55-2.3,1.66v14.52c0,1.12.18,1.78.53,2a4,4,0,0,0,2.27.6,4.4,4.4,0,0,0,3.44-1.58c1.36-1.51,2-4.05,2-7.61S372.94,249.62,371.36,248Zm-59,20.45a3.5,3.5,0,0,0-2.77-2,2.49,2.49,0,0,0-2.41,1.57,12.74,12.74,0,0,0-.6,4.87,112.43,112.43,0,0,0,.51,13.54c.28,2.17,1.16,3.25,2.63,3.25s2.67-.89,3.45-2.66a19.44,19.44,0,0,0,1.19-7.68Q314.36,271.83,312.36,268.42Zm-161-4.44a26.7,26.7,0,0,0-1.62-3.37c-.38-.57-.78-.85-1.19-.85-.74,0-1.37.94-1.87,2.86-.08.25-.37,1.26-.9,3a31.64,31.64,0,0,0-1.3,5.21c0,.7.48,1.07,1.43,1.07H152c1.11,0,1.67-.34,1.67-1Q153.64,269.49,151.32,264Zm0,0a26.7,26.7,0,0,0-1.62-3.37c-.38-.57-.78-.85-1.19-.85-.74,0-1.37.94-1.87,2.86-.08.25-.37,1.26-.9,3a31.64,31.64,0,0,0-1.3,5.21c0,.7.48,1.07,1.43,1.07H152c1.11,0,1.67-.34,1.67-1Q153.64,269.49,151.32,264Zm161,4.44a3.5,3.5,0,0,0-2.77-2,2.49,2.49,0,0,0-2.41,1.57,12.74,12.74,0,0,0-.6,4.87,112.43,112.43,0,0,0,.51,13.54c.28,2.17,1.16,3.25,2.63,3.25s2.67-.89,3.45-2.66a19.44,19.44,0,0,0,1.19-7.68Q314.36,271.83,312.36,268.42Zm59-20.45a4.74,4.74,0,0,0-3.6-1.58c-1.54,0-2.3.55-2.3,1.66v14.52c0,1.12.18,1.78.53,2a4,4,0,0,0,2.27.6,4.4,4.4,0,0,0,3.44-1.58c1.36-1.51,2-4.05,2-7.61S372.94,249.62,371.36,248Zm72.92,25.79a43.77,43.77,0,0,0-1.69-7.43c-.69-1.94-1.64-2.93-2.86-3a2.48,2.48,0,0,0-2.2,1.38,7.16,7.16,0,0,0-.82,3.69,49.7,49.7,0,0,0,.69,7,69.64,69.64,0,0,0,1.67,7.83c.65,2.33,1.68,3.51,3.14,3.51,1.85,0,2.76-1.62,2.76-4.84A55.23,55.23,0,0,0,444.28,273.76Zm0,0a43.77,43.77,0,0,0-1.69-7.43c-.69-1.94-1.64-2.93-2.86-3a2.48,2.48,0,0,0-2.2,1.38,7.16,7.16,0,0,0-.82,3.69,49.7,49.7,0,0,0,.69,7,69.64,69.64,0,0,0,1.67,7.83c.65,2.33,1.68,3.51,3.14,3.51,1.85,0,2.76-1.62,2.76-4.84A55.23,55.23,0,0,0,444.28,273.76ZM371.36,248a4.74,4.74,0,0,0-3.6-1.58c-1.54,0-2.3.55-2.3,1.66v14.52c0,1.12.18,1.78.53,2a4,4,0,0,0,2.27.6,4.4,4.4,0,0,0,3.44-1.58c1.36-1.51,2-4.05,2-7.61S372.94,249.62,371.36,248Zm-59,20.45a3.5,3.5,0,0,0-2.77-2,2.49,2.49,0,0,0-2.41,1.57,12.74,12.74,0,0,0-.6,4.87,112.43,112.43,0,0,0,.51,13.54c.28,2.17,1.16,3.25,2.63,3.25s2.67-.89,3.45-2.66a19.44,19.44,0,0,0,1.19-7.68Q314.36,271.83,312.36,268.42Zm-161-4.44a26.7,26.7,0,0,0-1.62-3.37c-.38-.57-.78-.85-1.19-.85-.74,0-1.37.94-1.87,2.86-.08.25-.37,1.26-.9,3a31.64,31.64,0,0,0-1.3,5.21c0,.7.48,1.07,1.43,1.07H152c1.11,0,1.67-.34,1.67-1Q153.64,269.49,151.32,264Zm0,0a26.7,26.7,0,0,0-1.62-3.37c-.38-.57-.78-.85-1.19-.85-.74,0-1.37.94-1.87,2.86-.08.25-.37,1.26-.9,3a31.64,31.64,0,0,0-1.3,5.21c0,.7.48,1.07,1.43,1.07H152c1.11,0,1.67-.34,1.67-1Q153.64,269.49,151.32,264Zm161,4.44a3.5,3.5,0,0,0-2.77-2,2.49,2.49,0,0,0-2.41,1.57,12.74,12.74,0,0,0-.6,4.87,112.43,112.43,0,0,0,.51,13.54c.28,2.17,1.16,3.25,2.63,3.25s2.67-.89,3.45-2.66a19.44,19.44,0,0,0,1.19-7.68Q314.36,271.83,312.36,268.42Zm59-20.45a4.74,4.74,0,0,0-3.6-1.58c-1.54,0-2.3.55-2.3,1.66v14.52c0,1.12.18,1.78.53,2a4,4,0,0,0,2.27.6,4.4,4.4,0,0,0,3.44-1.58c1.36-1.51,2-4.05,2-7.61S372.94,249.62,371.36,248Zm72.92,25.79a43.77,43.77,0,0,0-1.69-7.43c-.69-1.94-1.64-2.93-2.86-3a2.48,2.48,0,0,0-2.2,1.38,7.16,7.16,0,0,0-.82,3.69,49.7,49.7,0,0,0,.69,7,69.64,69.64,0,0,0,1.67,7.83c.65,2.33,1.68,3.51,3.14,3.51,1.85,0,2.76-1.62,2.76-4.84A55.23,55.23,0,0,0,444.28,273.76Zm0,0a43.77,43.77,0,0,0-1.69-7.43c-.69-1.94-1.64-2.93-2.86-3a2.48,2.48,0,0,0-2.2,1.38,7.16,7.16,0,0,0-.82,3.69,49.7,49.7,0,0,0,.69,7,69.64,69.64,0,0,0,1.67,7.83c.65,2.33,1.68,3.51,3.14,3.51,1.85,0,2.76-1.62,2.76-4.84A55.23,55.23,0,0,0,444.28,273.76ZM371.36,248a4.74,4.74,0,0,0-3.6-1.58c-1.54,0-2.3.55-2.3,1.66v14.52c0,1.12.18,1.78.53,2a4,4,0,0,0,2.27.6,4.4,4.4,0,0,0,3.44-1.58c1.36-1.51,2-4.05,2-7.61S372.94,249.62,371.36,248Zm-59,20.45a3.5,3.5,0,0,0-2.77-2,2.49,2.49,0,0,0-2.41,1.57,12.74,12.74,0,0,0-.6,4.87,112.43,112.43,0,0,0,.51,13.54c.28,2.17,1.16,3.25,2.63,3.25s2.67-.89,3.45-2.66a19.44,19.44,0,0,0,1.19-7.68Q314.36,271.83,312.36,268.42Zm-161-4.44a26.7,26.7,0,0,0-1.62-3.37c-.38-.57-.78-.85-1.19-.85-.74,0-1.37.94-1.87,2.86-.08.25-.37,1.26-.9,3a31.64,31.64,0,0,0-1.3,5.21c0,.7.48,1.07,1.43,1.07H152c1.11,0,1.67-.34,1.67-1Q153.64,269.49,151.32,264Zm0,0a26.7,26.7,0,0,0-1.62-3.37c-.38-.57-.78-.85-1.19-.85-.74,0-1.37.94-1.87,2.86-.08.25-.37,1.26-.9,3a31.64,31.64,0,0,0-1.3,5.21c0,.7.48,1.07,1.43,1.07H152c1.11,0,1.67-.34,1.67-1Q153.64,269.49,151.32,264Zm161,4.44a3.5,3.5,0,0,0-2.77-2,2.49,2.49,0,0,0-2.41,1.57,12.74,12.74,0,0,0-.6,4.87,112.43,112.43,0,0,0,.51,13.54c.28,2.17,1.16,3.25,2.63,3.25s2.67-.89,3.45-2.66a19.44,19.44,0,0,0,1.19-7.68Q314.36,271.83,312.36,268.42Zm59-20.45a4.74,4.74,0,0,0-3.6-1.58c-1.54,0-2.3.55-2.3,1.66v14.52c0,1.12.18,1.78.53,2a4,4,0,0,0,2.27.6,4.4,4.4,0,0,0,3.44-1.58c1.36-1.51,2-4.05,2-7.61S372.94,249.62,371.36,248Zm72.92,25.79a43.77,43.77,0,0,0-1.69-7.43c-.69-1.94-1.64-2.93-2.86-3a2.48,2.48,0,0,0-2.2,1.38,7.16,7.16,0,0,0-.82,3.69,49.7,49.7,0,0,0,.69,7,69.64,69.64,0,0,0,1.67,7.83c.65,2.33,1.68,3.51,3.14,3.51,1.85,0,2.76-1.62,2.76-4.84A55.23,55.23,0,0,0,444.28,273.76Zm0,0a43.77,43.77,0,0,0-1.69-7.43c-.69-1.94-1.64-2.93-2.86-3a2.48,2.48,0,0,0-2.2,1.38,7.16,7.16,0,0,0-.82,3.69,49.7,49.7,0,0,0,.69,7,69.64,69.64,0,0,0,1.67,7.83c.65,2.33,1.68,3.51,3.14,3.51,1.85,0,2.76-1.62,2.76-4.84A55.23,55.23,0,0,0,444.28,273.76ZM371.36,248a4.74,4.74,0,0,0-3.6-1.58c-1.54,0-2.3.55-2.3,1.66v14.52c0,1.12.18,1.78.53,2a4,4,0,0,0,2.27.6,4.4,4.4,0,0,0,3.44-1.58c1.36-1.51,2-4.05,2-7.61S372.94,249.62,371.36,248Zm-59,20.45a3.5,3.5,0,0,0-2.77-2,2.49,2.49,0,0,0-2.41,1.57,12.74,12.74,0,0,0-.6,4.87,112.43,112.43,0,0,0,.51,13.54c.28,2.17,1.16,3.25,2.63,3.25s2.67-.89,3.45-2.66a19.44,19.44,0,0,0,1.19-7.68Q314.36,271.83,312.36,268.42Zm-161-4.44a26.7,26.7,0,0,0-1.62-3.37c-.38-.57-.78-.85-1.19-.85-.74,0-1.37.94-1.87,2.86-.08.25-.37,1.26-.9,3a31.64,31.64,0,0,0-1.3,5.21c0,.7.48,1.07,1.43,1.07H152c1.11,0,1.67-.34,1.67-1Q153.64,269.49,151.32,264Zm0,0a26.7,26.7,0,0,0-1.62-3.37c-.38-.57-.78-.85-1.19-.85-.74,0-1.37.94-1.87,2.86-.08.25-.37,1.26-.9,3a31.64,31.64,0,0,0-1.3,5.21c0,.7.48,1.07,1.43,1.07H152c1.11,0,1.67-.34,1.67-1Q153.64,269.49,151.32,264Zm161,4.44a3.5,3.5,0,0,0-2.77-2,2.49,2.49,0,0,0-2.41,1.57,12.74,12.74,0,0,0-.6,4.87,112.43,112.43,0,0,0,.51,13.54c.28,2.17,1.16,3.25,2.63,3.25s2.67-.89,3.45-2.66a19.44,19.44,0,0,0,1.19-7.68Q314.36,271.83,312.36,268.42Zm59-20.45a4.74,4.74,0,0,0-3.6-1.58c-1.54,0-2.3.55-2.3,1.66v14.52c0,1.12.18,1.78.53,2a4,4,0,0,0,2.27.6,4.4,4.4,0,0,0,3.44-1.58c1.36-1.51,2-4.05,2-7.61S372.94,249.62,371.36,248Zm72.92,25.79a43.77,43.77,0,0,0-1.69-7.43c-.69-1.94-1.64-2.93-2.86-3a2.48,2.48,0,0,0-2.2,1.38,7.16,7.16,0,0,0-.82,3.69,49.7,49.7,0,0,0,.69,7,69.64,69.64,0,0,0,1.67,7.83c.65,2.33,1.68,3.51,3.14,3.51,1.85,0,2.76-1.62,2.76-4.84A55.23,55.23,0,0,0,444.28,273.76Zm0,0a43.77,43.77,0,0,0-1.69-7.43c-.69-1.94-1.64-2.93-2.86-3a2.48,2.48,0,0,0-2.2,1.38,7.16,7.16,0,0,0-.82,3.69,49.7,49.7,0,0,0,.69,7,69.64,69.64,0,0,0,1.67,7.83c.65,2.33,1.68,3.51,3.14,3.51,1.85,0,2.76-1.62,2.76-4.84A55.23,55.23,0,0,0,444.28,273.76ZM371.36,248a4.74,4.74,0,0,0-3.6-1.58c-1.54,0-2.3.55-2.3,1.66v14.52c0,1.12.18,1.78.53,2a4,4,0,0,0,2.27.6,4.4,4.4,0,0,0,3.44-1.58c1.36-1.51,2-4.05,2-7.61S372.94,249.62,371.36,248Zm-59,20.45a3.5,3.5,0,0,0-2.77-2,2.49,2.49,0,0,0-2.41,1.57,12.74,12.74,0,0,0-.6,4.87,112.43,112.43,0,0,0,.51,13.54c.28,2.17,1.16,3.25,2.63,3.25s2.67-.89,3.45-2.66a19.44,19.44,0,0,0,1.19-7.68Q314.36,271.83,312.36,268.42Zm-161-4.44a26.7,26.7,0,0,0-1.62-3.37c-.38-.57-.78-.85-1.19-.85-.74,0-1.37.94-1.87,2.86-.08.25-.37,1.26-.9,3a31.64,31.64,0,0,0-1.3,5.21c0,.7.48,1.07,1.43,1.07H152c1.11,0,1.67-.34,1.67-1Q153.64,269.49,151.32,264Zm0,0a26.7,26.7,0,0,0-1.62-3.37c-.38-.57-.78-.85-1.19-.85-.74,0-1.37.94-1.87,2.86-.08.25-.37,1.26-.9,3a31.64,31.64,0,0,0-1.3,5.21c0,.7.48,1.07,1.43,1.07H152c1.11,0,1.67-.34,1.67-1Q153.64,269.49,151.32,264Zm161,4.44a3.5,3.5,0,0,0-2.77-2,2.49,2.49,0,0,0-2.41,1.57,12.74,12.74,0,0,0-.6,4.87,112.43,112.43,0,0,0,.51,13.54c.28,2.17,1.16,3.25,2.63,3.25s2.67-.89,3.45-2.66a19.44,19.44,0,0,0,1.19-7.68Q314.36,271.83,312.36,268.42Zm59-20.45a4.74,4.74,0,0,0-3.6-1.58c-1.54,0-2.3.55-2.3,1.66v14.52c0,1.12.18,1.78.53,2a4,4,0,0,0,2.27.6,4.4,4.4,0,0,0,3.44-1.58c1.36-1.51,2-4.05,2-7.61S372.94,249.62,371.36,248Zm72.92,25.79a43.77,43.77,0,0,0-1.69-7.43c-.69-1.94-1.64-2.93-2.86-3a2.48,2.48,0,0,0-2.2,1.38,7.16,7.16,0,0,0-.82,3.69,49.7,49.7,0,0,0,.69,7,69.64,69.64,0,0,0,1.67,7.83c.65,2.33,1.68,3.51,3.14,3.51,1.85,0,2.76-1.62,2.76-4.84A55.23,55.23,0,0,0,444.28,273.76Zm0,0a43.77,43.77,0,0,0-1.69-7.43c-.69-1.94-1.64-2.93-2.86-3a2.48,2.48,0,0,0-2.2,1.38,7.16,7.16,0,0,0-.82,3.69,49.7,49.7,0,0,0,.69,7,69.64,69.64,0,0,0,1.67,7.83c.65,2.33,1.68,3.51,3.14,3.51,1.85,0,2.76-1.62,2.76-4.84A55.23,55.23,0,0,0,444.28,273.76ZM371.36,248a4.74,4.74,0,0,0-3.6-1.58c-1.54,0-2.3.55-2.3,1.66v14.52c0,1.12.18,1.78.53,2a4,4,0,0,0,2.27.6,4.4,4.4,0,0,0,3.44-1.58c1.36-1.51,2-4.05,2-7.61S372.94,249.62,371.36,248Zm-59,20.45a3.5,3.5,0,0,0-2.77-2,2.49,2.49,0,0,0-2.41,1.57,12.74,12.74,0,0,0-.6,4.87,112.43,112.43,0,0,0,.51,13.54c.28,2.17,1.16,3.25,2.63,3.25s2.67-.89,3.45-2.66a19.44,19.44,0,0,0,1.19-7.68Q314.36,271.83,312.36,268.42Zm-161-4.44a26.7,26.7,0,0,0-1.62-3.37c-.38-.57-.78-.85-1.19-.85-.74,0-1.37.94-1.87,2.86-.08.25-.37,1.26-.9,3a31.64,31.64,0,0,0-1.3,5.21c0,.7.48,1.07,1.43,1.07H152c1.11,0,1.67-.34,1.67-1Q153.64,269.49,151.32,264Zm0,0a26.7,26.7,0,0,0-1.62-3.37c-.38-.57-.78-.85-1.19-.85-.74,0-1.37.94-1.87,2.86-.08.25-.37,1.26-.9,3a31.64,31.64,0,0,0-1.3,5.21c0,.7.48,1.07,1.43,1.07H152c1.11,0,1.67-.34,1.67-1Q153.64,269.49,151.32,264Zm161,4.44a3.5,3.5,0,0,0-2.77-2,2.49,2.49,0,0,0-2.41,1.57,12.74,12.74,0,0,0-.6,4.87,112.43,112.43,0,0,0,.51,13.54c.28,2.17,1.16,3.25,2.63,3.25s2.67-.89,3.45-2.66a19.44,19.44,0,0,0,1.19-7.68Q314.36,271.83,312.36,268.42Zm59-20.45a4.74,4.74,0,0,0-3.6-1.58c-1.54,0-2.3.55-2.3,1.66v14.52c0,1.12.18,1.78.53,2a4,4,0,0,0,2.27.6,4.4,4.4,0,0,0,3.44-1.58c1.36-1.51,2-4.05,2-7.61S372.94,249.62,371.36,248Zm72.92,25.79a43.77,43.77,0,0,0-1.69-7.43c-.69-1.94-1.64-2.93-2.86-3a2.48,2.48,0,0,0-2.2,1.38,7.16,7.16,0,0,0-.82,3.69,49.7,49.7,0,0,0,.69,7,69.64,69.64,0,0,0,1.67,7.83c.65,2.33,1.68,3.51,3.14,3.51,1.85,0,2.76-1.62,2.76-4.84A55.23,55.23,0,0,0,444.28,273.76Zm0,0a43.77,43.77,0,0,0-1.69-7.43c-.69-1.94-1.64-2.93-2.86-3a2.48,2.48,0,0,0-2.2,1.38,7.16,7.16,0,0,0-.82,3.69,49.7,49.7,0,0,0,.69,7,69.64,69.64,0,0,0,1.67,7.83c.65,2.33,1.68,3.51,3.14,3.51,1.85,0,2.76-1.62,2.76-4.84A55.23,55.23,0,0,0,444.28,273.76ZM371.36,248a4.74,4.74,0,0,0-3.6-1.58c-1.54,0-2.3.55-2.3,1.66v14.52c0,1.12.18,1.78.53,2a4,4,0,0,0,2.27.6,4.4,4.4,0,0,0,3.44-1.58c1.36-1.51,2-4.05,2-7.61S372.94,249.62,371.36,248Zm-59,20.45a3.5,3.5,0,0,0-2.77-2,2.49,2.49,0,0,0-2.41,1.57,12.74,12.74,0,0,0-.6,4.87,112.43,112.43,0,0,0,.51,13.54c.28,2.17,1.16,3.25,2.63,3.25s2.67-.89,3.45-2.66a19.44,19.44,0,0,0,1.19-7.68Q314.36,271.83,312.36,268.42Zm-161-4.44a26.7,26.7,0,0,0-1.62-3.37c-.38-.57-.78-.85-1.19-.85-.74,0-1.37.94-1.87,2.86-.08.25-.37,1.26-.9,3a31.64,31.64,0,0,0-1.3,5.21c0,.7.48,1.07,1.43,1.07H152c1.11,0,1.67-.34,1.67-1Q153.64,269.49,151.32,264Zm0,0a26.7,26.7,0,0,0-1.62-3.37c-.38-.57-.78-.85-1.19-.85-.74,0-1.37.94-1.87,2.86-.08.25-.37,1.26-.9,3a31.64,31.64,0,0,0-1.3,5.21c0,.7.48,1.07,1.43,1.07H152c1.11,0,1.67-.34,1.67-1Q153.64,269.49,151.32,264Zm161,4.44a3.5,3.5,0,0,0-2.77-2,2.49,2.49,0,0,0-2.41,1.57,12.74,12.74,0,0,0-.6,4.87,112.43,112.43,0,0,0,.51,13.54c.28,2.17,1.16,3.25,2.63,3.25s2.67-.89,3.45-2.66a19.44,19.44,0,0,0,1.19-7.68Q314.36,271.83,312.36,268.42Zm59-20.45a4.74,4.74,0,0,0-3.6-1.58c-1.54,0-2.3.55-2.3,1.66v14.52c0,1.12.18,1.78.53,2a4,4,0,0,0,2.27.6,4.4,4.4,0,0,0,3.44-1.58c1.36-1.51,2-4.05,2-7.61S372.94,249.62,371.36,248Zm72.92,25.79a43.77,43.77,0,0,0-1.69-7.43c-.69-1.94-1.64-2.93-2.86-3a2.48,2.48,0,0,0-2.2,1.38,7.16,7.16,0,0,0-.82,3.69,49.7,49.7,0,0,0,.69,7,69.64,69.64,0,0,0,1.67,7.83c.65,2.33,1.68,3.51,3.14,3.51,1.85,0,2.76-1.62,2.76-4.84A55.23,55.23,0,0,0,444.28,273.76Zm0,0a43.77,43.77,0,0,0-1.69-7.43c-.69-1.94-1.64-2.93-2.86-3a2.48,2.48,0,0,0-2.2,1.38,7.16,7.16,0,0,0-.82,3.69,49.7,49.7,0,0,0,.69,7,69.64,69.64,0,0,0,1.67,7.83c.65,2.33,1.68,3.51,3.14,3.51,1.85,0,2.76-1.62,2.76-4.84A55.23,55.23,0,0,0,444.28,273.76ZM371.36,248a4.74,4.74,0,0,0-3.6-1.58c-1.54,0-2.3.55-2.3,1.66v14.52c0,1.12.18,1.78.53,2a4,4,0,0,0,2.27.6,4.4,4.4,0,0,0,3.44-1.58c1.36-1.51,2-4.05,2-7.61S372.94,249.62,371.36,248Zm-59,20.45a3.5,3.5,0,0,0-2.77-2,2.49,2.49,0,0,0-2.41,1.57,12.74,12.74,0,0,0-.6,4.87,112.43,112.43,0,0,0,.51,13.54c.28,2.17,1.16,3.25,2.63,3.25s2.67-.89,3.45-2.66a19.44,19.44,0,0,0,1.19-7.68Q314.36,271.83,312.36,268.42Zm-161-4.44a26.7,26.7,0,0,0-1.62-3.37c-.38-.57-.78-.85-1.19-.85-.74,0-1.37.94-1.87,2.86-.08.25-.37,1.26-.9,3a31.64,31.64,0,0,0-1.3,5.21c0,.7.48,1.07,1.43,1.07H152c1.11,0,1.67-.34,1.67-1Q153.64,269.49,151.32,264Zm0,0a26.7,26.7,0,0,0-1.62-3.37c-.38-.57-.78-.85-1.19-.85-.74,0-1.37.94-1.87,2.86-.08.25-.37,1.26-.9,3a31.64,31.64,0,0,0-1.3,5.21c0,.7.48,1.07,1.43,1.07H152c1.11,0,1.67-.34,1.67-1Q153.64,269.49,151.32,264Zm161,4.44a3.5,3.5,0,0,0-2.77-2,2.49,2.49,0,0,0-2.41,1.57,12.74,12.74,0,0,0-.6,4.87,112.43,112.43,0,0,0,.51,13.54c.28,2.17,1.16,3.25,2.63,3.25s2.67-.89,3.45-2.66a19.44,19.44,0,0,0,1.19-7.68Q314.36,271.83,312.36,268.42Zm59-20.45a4.74,4.74,0,0,0-3.6-1.58c-1.54,0-2.3.55-2.3,1.66v14.52c0,1.12.18,1.78.53,2a4,4,0,0,0,2.27.6,4.4,4.4,0,0,0,3.44-1.58c1.36-1.51,2-4.05,2-7.61S372.94,249.62,371.36,248Zm72.92,25.79a43.77,43.77,0,0,0-1.69-7.43c-.69-1.94-1.64-2.93-2.86-3a2.48,2.48,0,0,0-2.2,1.38,7.16,7.16,0,0,0-.82,3.69,49.7,49.7,0,0,0,.69,7,69.64,69.64,0,0,0,1.67,7.83c.65,2.33,1.68,3.51,3.14,3.51,1.85,0,2.76-1.62,2.76-4.84A55.23,55.23,0,0,0,444.28,273.76Zm0,0a43.77,43.77,0,0,0-1.69-7.43c-.69-1.94-1.64-2.93-2.86-3a2.48,2.48,0,0,0-2.2,1.38,7.16,7.16,0,0,0-.82,3.69,49.7,49.7,0,0,0,.69,7,69.64,69.64,0,0,0,1.67,7.83c.65,2.33,1.68,3.51,3.14,3.51,1.85,0,2.76-1.62,2.76-4.84A55.23,55.23,0,0,0,444.28,273.76ZM371.36,248a4.74,4.74,0,0,0-3.6-1.58c-1.54,0-2.3.55-2.3,1.66v14.52c0,1.12.18,1.78.53,2a4,4,0,0,0,2.27.6,4.4,4.4,0,0,0,3.44-1.58c1.36-1.51,2-4.05,2-7.61S372.94,249.62,371.36,248Zm-59,20.45a3.5,3.5,0,0,0-2.77-2,2.49,2.49,0,0,0-2.41,1.57,12.74,12.74,0,0,0-.6,4.87,112.43,112.43,0,0,0,.51,13.54c.28,2.17,1.16,3.25,2.63,3.25s2.67-.89,3.45-2.66a19.44,19.44,0,0,0,1.19-7.68Q314.36,271.83,312.36,268.42Zm-161-4.44a26.7,26.7,0,0,0-1.62-3.37c-.38-.57-.78-.85-1.19-.85-.74,0-1.37.94-1.87,2.86-.08.25-.37,1.26-.9,3a31.64,31.64,0,0,0-1.3,5.21c0,.7.48,1.07,1.43,1.07H152c1.11,0,1.67-.34,1.67-1Q153.64,269.49,151.32,264Zm293,9.78a43.77,43.77,0,0,0-1.69-7.43c-.69-1.94-1.64-2.93-2.86-3a2.48,2.48,0,0,0-2.2,1.38,7.16,7.16,0,0,0-.82,3.69,49.7,49.7,0,0,0,.69,7,69.64,69.64,0,0,0,1.67,7.83c.65,2.33,1.68,3.51,3.14,3.51,1.85,0,2.76-1.62,2.76-4.84A55.23,55.23,0,0,0,444.28,273.76Zm-76.52-27.37c-1.54,0-2.3.55-2.3,1.66v14.52c0,1.12.18,1.78.53,2a4,4,0,0,0,2.27.6,4.4,4.4,0,0,0,3.44-1.58c1.36-1.51,2-4.05,2-7.61s-.79-6.37-2.37-8A4.74,4.74,0,0,0,367.76,246.39Zm-58.17,20a2.49,2.49,0,0,0-2.41,1.57,12.74,12.74,0,0,0-.6,4.87,112.43,112.43,0,0,0,.51,13.54c.28,2.17,1.16,3.25,2.63,3.25s2.67-.89,3.45-2.66a19.44,19.44,0,0,0,1.19-7.68q0-7.44-2-10.85A3.5,3.5,0,0,0,309.59,266.38ZM149.7,260.61c-.38-.57-.78-.85-1.19-.85-.74,0-1.37.94-1.87,2.86-.08.25-.37,1.26-.9,3a31.64,31.64,0,0,0-1.3,5.21c0,.7.48,1.07,1.43,1.07H152c1.11,0,1.67-.34,1.67-1q0-1.41-2.32-6.92A26.7,26.7,0,0,0,149.7,260.61Zm1.62,3.37a26.7,26.7,0,0,0-1.62-3.37c-.38-.57-.78-.85-1.19-.85-.74,0-1.37.94-1.87,2.86-.08.25-.37,1.26-.9,3a31.64,31.64,0,0,0-1.3,5.21c0,.7.48,1.07,1.43,1.07H152c1.11,0,1.67-.34,1.67-1Q153.64,269.49,151.32,264Zm161,4.44a3.5,3.5,0,0,0-2.77-2,2.49,2.49,0,0,0-2.41,1.57,12.74,12.74,0,0,0-.6,4.87,112.43,112.43,0,0,0,.51,13.54c.28,2.17,1.16,3.25,2.63,3.25s2.67-.89,3.45-2.66a19.44,19.44,0,0,0,1.19-7.68Q314.36,271.83,312.36,268.42Zm59-20.45a4.74,4.74,0,0,0-3.6-1.58c-1.54,0-2.3.55-2.3,1.66v14.52c0,1.12.18,1.78.53,2a4,4,0,0,0,2.27.6,4.4,4.4,0,0,0,3.44-1.58c1.36-1.51,2-4.05,2-7.61S372.94,249.62,371.36,248Zm72.92,25.79a43.77,43.77,0,0,0-1.69-7.43c-.69-1.94-1.64-2.93-2.86-3a2.48,2.48,0,0,0-2.2,1.38,7.16,7.16,0,0,0-.82,3.69,49.7,49.7,0,0,0,.69,7,69.64,69.64,0,0,0,1.67,7.83c.65,2.33,1.68,3.51,3.14,3.51,1.85,0,2.76-1.62,2.76-4.84A55.23,55.23,0,0,0,444.28,273.76Zm0,0a43.77,43.77,0,0,0-1.69-7.43c-.69-1.94-1.64-2.93-2.86-3a2.48,2.48,0,0,0-2.2,1.38,7.16,7.16,0,0,0-.82,3.69,49.7,49.7,0,0,0,.69,7,69.64,69.64,0,0,0,1.67,7.83c.65,2.33,1.68,3.51,3.14,3.51,1.85,0,2.76-1.62,2.76-4.84A55.23,55.23,0,0,0,444.28,273.76ZM371.36,248a4.74,4.74,0,0,0-3.6-1.58c-1.54,0-2.3.55-2.3,1.66v14.52c0,1.12.18,1.78.53,2a4,4,0,0,0,2.27.6,4.4,4.4,0,0,0,3.44-1.58c1.36-1.51,2-4.05,2-7.61S372.94,249.62,371.36,248Zm-59,20.45a3.5,3.5,0,0,0-2.77-2,2.49,2.49,0,0,0-2.41,1.57,12.74,12.74,0,0,0-.6,4.87,112.43,112.43,0,0,0,.51,13.54c.28,2.17,1.16,3.25,2.63,3.25s2.67-.89,3.45-2.66a19.44,19.44,0,0,0,1.19-7.68Q314.36,271.83,312.36,268.42Zm-161-4.44a26.7,26.7,0,0,0-1.62-3.37c-.38-.57-.78-.85-1.19-.85-.74,0-1.37.94-1.87,2.86-.08.25-.37,1.26-.9,3a31.64,31.64,0,0,0-1.3,5.21c0,.7.48,1.07,1.43,1.07H152c1.11,0,1.67-.34,1.67-1Q153.64,269.49,151.32,264Zm0,0a26.7,26.7,0,0,0-1.62-3.37c-.38-.57-.78-.85-1.19-.85-.74,0-1.37.94-1.87,2.86-.08.25-.37,1.26-.9,3a31.64,31.64,0,0,0-1.3,5.21c0,.7.48,1.07,1.43,1.07H152c1.11,0,1.67-.34,1.67-1Q153.64,269.49,151.32,264Zm161,4.44a3.5,3.5,0,0,0-2.77-2,2.49,2.49,0,0,0-2.41,1.57,12.74,12.74,0,0,0-.6,4.87,112.43,112.43,0,0,0,.51,13.54c.28,2.17,1.16,3.25,2.63,3.25s2.67-.89,3.45-2.66a19.44,19.44,0,0,0,1.19-7.68Q314.36,271.83,312.36,268.42Zm59-20.45a4.74,4.74,0,0,0-3.6-1.58c-1.54,0-2.3.55-2.3,1.66v14.52c0,1.12.18,1.78.53,2a4,4,0,0,0,2.27.6,4.4,4.4,0,0,0,3.44-1.58c1.36-1.51,2-4.05,2-7.61S372.94,249.62,371.36,248Zm72.92,25.79a43.77,43.77,0,0,0-1.69-7.43c-.69-1.94-1.64-2.93-2.86-3a2.48,2.48,0,0,0-2.2,1.38,7.16,7.16,0,0,0-.82,3.69,49.7,49.7,0,0,0,.69,7,69.64,69.64,0,0,0,1.67,7.83c.65,2.33,1.68,3.51,3.14,3.51,1.85,0,2.76-1.62,2.76-4.84A55.23,55.23,0,0,0,444.28,273.76Zm0,0a43.77,43.77,0,0,0-1.69-7.43c-.69-1.94-1.64-2.93-2.86-3a2.48,2.48,0,0,0-2.2,1.38,7.16,7.16,0,0,0-.82,3.69,49.7,49.7,0,0,0,.69,7,69.64,69.64,0,0,0,1.67,7.83c.65,2.33,1.68,3.51,3.14,3.51,1.85,0,2.76-1.62,2.76-4.84A55.23,55.23,0,0,0,444.28,273.76ZM371.36,248a4.74,4.74,0,0,0-3.6-1.58c-1.54,0-2.3.55-2.3,1.66v14.52c0,1.12.18,1.78.53,2a4,4,0,0,0,2.27.6,4.4,4.4,0,0,0,3.44-1.58c1.36-1.51,2-4.05,2-7.61S372.94,249.62,371.36,248Zm-59,20.45a3.5,3.5,0,0,0-2.77-2,2.49,2.49,0,0,0-2.41,1.57,12.74,12.74,0,0,0-.6,4.87,112.43,112.43,0,0,0,.51,13.54c.28,2.17,1.16,3.25,2.63,3.25s2.67-.89,3.45-2.66a19.44,19.44,0,0,0,1.19-7.68Q314.36,271.83,312.36,268.42Zm-161-4.44a26.7,26.7,0,0,0-1.62-3.37c-.38-.57-.78-.85-1.19-.85-.74,0-1.37.94-1.87,2.86-.08.25-.37,1.26-.9,3a31.64,31.64,0,0,0-1.3,5.21c0,.7.48,1.07,1.43,1.07H152c1.11,0,1.67-.34,1.67-1Q153.64,269.49,151.32,264Zm0,0a26.7,26.7,0,0,0-1.62-3.37c-.38-.57-.78-.85-1.19-.85-.74,0-1.37.94-1.87,2.86-.08.25-.37,1.26-.9,3a31.64,31.64,0,0,0-1.3,5.21c0,.7.48,1.07,1.43,1.07H152c1.11,0,1.67-.34,1.67-1Q153.64,269.49,151.32,264Zm161,4.44a3.5,3.5,0,0,0-2.77-2,2.49,2.49,0,0,0-2.41,1.57,12.74,12.74,0,0,0-.6,4.87,112.43,112.43,0,0,0,.51,13.54c.28,2.17,1.16,3.25,2.63,3.25s2.67-.89,3.45-2.66a19.44,19.44,0,0,0,1.19-7.68Q314.36,271.83,312.36,268.42Zm59-20.45a4.74,4.74,0,0,0-3.6-1.58c-1.54,0-2.3.55-2.3,1.66v14.52c0,1.12.18,1.78.53,2a4,4,0,0,0,2.27.6,4.4,4.4,0,0,0,3.44-1.58c1.36-1.51,2-4.05,2-7.61S372.94,249.62,371.36,248Zm72.92,25.79a43.77,43.77,0,0,0-1.69-7.43c-.69-1.94-1.64-2.93-2.86-3a2.48,2.48,0,0,0-2.2,1.38,7.16,7.16,0,0,0-.82,3.69,49.7,49.7,0,0,0,.69,7,69.64,69.64,0,0,0,1.67,7.83c.65,2.33,1.68,3.51,3.14,3.51,1.85,0,2.76-1.62,2.76-4.84A55.23,55.23,0,0,0,444.28,273.76Zm0,0a43.77,43.77,0,0,0-1.69-7.43c-.69-1.94-1.64-2.93-2.86-3a2.48,2.48,0,0,0-2.2,1.38,7.16,7.16,0,0,0-.82,3.69,49.7,49.7,0,0,0,.69,7,69.64,69.64,0,0,0,1.67,7.83c.65,2.33,1.68,3.51,3.14,3.51,1.85,0,2.76-1.62,2.76-4.84A55.23,55.23,0,0,0,444.28,273.76ZM371.36,248a4.74,4.74,0,0,0-3.6-1.58c-1.54,0-2.3.55-2.3,1.66v14.52c0,1.12.18,1.78.53,2a4,4,0,0,0,2.27.6,4.4,4.4,0,0,0,3.44-1.58c1.36-1.51,2-4.05,2-7.61S372.94,249.62,371.36,248Zm-59,20.45a3.5,3.5,0,0,0-2.77-2,2.49,2.49,0,0,0-2.41,1.57,12.74,12.74,0,0,0-.6,4.87,112.43,112.43,0,0,0,.51,13.54c.28,2.17,1.16,3.25,2.63,3.25s2.67-.89,3.45-2.66a19.44,19.44,0,0,0,1.19-7.68Q314.36,271.83,312.36,268.42Zm-161-4.44a26.7,26.7,0,0,0-1.62-3.37c-.38-.57-.78-.85-1.19-.85-.74,0-1.37.94-1.87,2.86-.08.25-.37,1.26-.9,3a31.64,31.64,0,0,0-1.3,5.21c0,.7.48,1.07,1.43,1.07H152c1.11,0,1.67-.34,1.67-1Q153.64,269.49,151.32,264Zm0,0a26.7,26.7,0,0,0-1.62-3.37c-.38-.57-.78-.85-1.19-.85-.74,0-1.37.94-1.87,2.86-.08.25-.37,1.26-.9,3a31.64,31.64,0,0,0-1.3,5.21c0,.7.48,1.07,1.43,1.07H152c1.11,0,1.67-.34,1.67-1Q153.64,269.49,151.32,264Zm161,4.44a3.5,3.5,0,0,0-2.77-2,2.49,2.49,0,0,0-2.41,1.57,12.74,12.74,0,0,0-.6,4.87,112.43,112.43,0,0,0,.51,13.54c.28,2.17,1.16,3.25,2.63,3.25s2.67-.89,3.45-2.66a19.44,19.44,0,0,0,1.19-7.68Q314.36,271.83,312.36,268.42Zm59-20.45a4.74,4.74,0,0,0-3.6-1.58c-1.54,0-2.3.55-2.3,1.66v14.52c0,1.12.18,1.78.53,2a4,4,0,0,0,2.27.6,4.4,4.4,0,0,0,3.44-1.58c1.36-1.51,2-4.05,2-7.61S372.94,249.62,371.36,248Zm72.92,25.79a43.77,43.77,0,0,0-1.69-7.43c-.69-1.94-1.64-2.93-2.86-3a2.48,2.48,0,0,0-2.2,1.38,7.16,7.16,0,0,0-.82,3.69,49.7,49.7,0,0,0,.69,7,69.64,69.64,0,0,0,1.67,7.83c.65,2.33,1.68,3.51,3.14,3.51,1.85,0,2.76-1.62,2.76-4.84A55.23,55.23,0,0,0,444.28,273.76Zm0,0a43.77,43.77,0,0,0-1.69-7.43c-.69-1.94-1.64-2.93-2.86-3a2.48,2.48,0,0,0-2.2,1.38,7.16,7.16,0,0,0-.82,3.69,49.7,49.7,0,0,0,.69,7,69.64,69.64,0,0,0,1.67,7.83c.65,2.33,1.68,3.51,3.14,3.51,1.85,0,2.76-1.62,2.76-4.84A55.23,55.23,0,0,0,444.28,273.76ZM371.36,248a4.74,4.74,0,0,0-3.6-1.58c-1.54,0-2.3.55-2.3,1.66v14.52c0,1.12.18,1.78.53,2a4,4,0,0,0,2.27.6,4.4,4.4,0,0,0,3.44-1.58c1.36-1.51,2-4.05,2-7.61S372.94,249.62,371.36,248Zm-59,20.45a3.5,3.5,0,0,0-2.77-2,2.49,2.49,0,0,0-2.41,1.57,12.74,12.74,0,0,0-.6,4.87,112.43,112.43,0,0,0,.51,13.54c.28,2.17,1.16,3.25,2.63,3.25s2.67-.89,3.45-2.66a19.44,19.44,0,0,0,1.19-7.68Q314.36,271.83,312.36,268.42Zm-161-4.44a26.7,26.7,0,0,0-1.62-3.37c-.38-.57-.78-.85-1.19-.85-.74,0-1.37.94-1.87,2.86-.08.25-.37,1.26-.9,3a31.64,31.64,0,0,0-1.3,5.21c0,.7.48,1.07,1.43,1.07H152c1.11,0,1.67-.34,1.67-1Q153.64,269.49,151.32,264Zm0,0a26.7,26.7,0,0,0-1.62-3.37c-.38-.57-.78-.85-1.19-.85-.74,0-1.37.94-1.87,2.86-.08.25-.37,1.26-.9,3a31.64,31.64,0,0,0-1.3,5.21c0,.7.48,1.07,1.43,1.07H152c1.11,0,1.67-.34,1.67-1Q153.64,269.49,151.32,264Zm161,4.44a3.5,3.5,0,0,0-2.77-2,2.49,2.49,0,0,0-2.41,1.57,12.74,12.74,0,0,0-.6,4.87,112.43,112.43,0,0,0,.51,13.54c.28,2.17,1.16,3.25,2.63,3.25s2.67-.89,3.45-2.66a19.44,19.44,0,0,0,1.19-7.68Q314.36,271.83,312.36,268.42Zm59-20.45a4.74,4.74,0,0,0-3.6-1.58c-1.54,0-2.3.55-2.3,1.66v14.52c0,1.12.18,1.78.53,2a4,4,0,0,0,2.27.6,4.4,4.4,0,0,0,3.44-1.58c1.36-1.51,2-4.05,2-7.61S372.94,249.62,371.36,248Zm72.92,25.79a43.77,43.77,0,0,0-1.69-7.43c-.69-1.94-1.64-2.93-2.86-3a2.48,2.48,0,0,0-2.2,1.38,7.16,7.16,0,0,0-.82,3.69,49.7,49.7,0,0,0,.69,7,69.64,69.64,0,0,0,1.67,7.83c.65,2.33,1.68,3.51,3.14,3.51,1.85,0,2.76-1.62,2.76-4.84A55.23,55.23,0,0,0,444.28,273.76Zm0,0a43.77,43.77,0,0,0-1.69-7.43c-.69-1.94-1.64-2.93-2.86-3a2.48,2.48,0,0,0-2.2,1.38,7.16,7.16,0,0,0-.82,3.69,49.7,49.7,0,0,0,.69,7,69.64,69.64,0,0,0,1.67,7.83c.65,2.33,1.68,3.51,3.14,3.51,1.85,0,2.76-1.62,2.76-4.84A55.23,55.23,0,0,0,444.28,273.76ZM371.36,248a4.74,4.74,0,0,0-3.6-1.58c-1.54,0-2.3.55-2.3,1.66v14.52c0,1.12.18,1.78.53,2a4,4,0,0,0,2.27.6,4.4,4.4,0,0,0,3.44-1.58c1.36-1.51,2-4.05,2-7.61S372.94,249.62,371.36,248Zm-59,20.45a3.5,3.5,0,0,0-2.77-2,2.49,2.49,0,0,0-2.41,1.57,12.74,12.74,0,0,0-.6,4.87,112.43,112.43,0,0,0,.51,13.54c.28,2.17,1.16,3.25,2.63,3.25s2.67-.89,3.45-2.66a19.44,19.44,0,0,0,1.19-7.68Q314.36,271.83,312.36,268.42Zm-161-4.44a26.7,26.7,0,0,0-1.62-3.37c-.38-.57-.78-.85-1.19-.85-.74,0-1.37.94-1.87,2.86-.08.25-.37,1.26-.9,3a31.64,31.64,0,0,0-1.3,5.21c0,.7.48,1.07,1.43,1.07H152c1.11,0,1.67-.34,1.67-1Q153.64,269.49,151.32,264Zm0,0a26.7,26.7,0,0,0-1.62-3.37c-.38-.57-.78-.85-1.19-.85-.74,0-1.37.94-1.87,2.86-.08.25-.37,1.26-.9,3a31.64,31.64,0,0,0-1.3,5.21c0,.7.48,1.07,1.43,1.07H152c1.11,0,1.67-.34,1.67-1Q153.64,269.49,151.32,264Zm161,4.44a3.5,3.5,0,0,0-2.77-2,2.49,2.49,0,0,0-2.41,1.57,12.74,12.74,0,0,0-.6,4.87,112.43,112.43,0,0,0,.51,13.54c.28,2.17,1.16,3.25,2.63,3.25s2.67-.89,3.45-2.66a19.44,19.44,0,0,0,1.19-7.68Q314.36,271.83,312.36,268.42Zm59-20.45a4.74,4.74,0,0,0-3.6-1.58c-1.54,0-2.3.55-2.3,1.66v14.52c0,1.12.18,1.78.53,2a4,4,0,0,0,2.27.6,4.4,4.4,0,0,0,3.44-1.58c1.36-1.51,2-4.05,2-7.61S372.94,249.62,371.36,248Zm72.92,25.79a43.77,43.77,0,0,0-1.69-7.43c-.69-1.94-1.64-2.93-2.86-3a2.48,2.48,0,0,0-2.2,1.38,7.16,7.16,0,0,0-.82,3.69,49.7,49.7,0,0,0,.69,7,69.64,69.64,0,0,0,1.67,7.83c.65,2.33,1.68,3.51,3.14,3.51,1.85,0,2.76-1.62,2.76-4.84A55.23,55.23,0,0,0,444.28,273.76Zm0,0a43.77,43.77,0,0,0-1.69-7.43c-.69-1.94-1.64-2.93-2.86-3a2.48,2.48,0,0,0-2.2,1.38,7.16,7.16,0,0,0-.82,3.69,49.7,49.7,0,0,0,.69,7,69.64,69.64,0,0,0,1.67,7.83c.65,2.33,1.68,3.51,3.14,3.51,1.85,0,2.76-1.62,2.76-4.84A55.23,55.23,0,0,0,444.28,273.76ZM371.36,248a4.74,4.74,0,0,0-3.6-1.58c-1.54,0-2.3.55-2.3,1.66v14.52c0,1.12.18,1.78.53,2a4,4,0,0,0,2.27.6,4.4,4.4,0,0,0,3.44-1.58c1.36-1.51,2-4.05,2-7.61S372.94,249.62,371.36,248Zm-59,20.45a3.5,3.5,0,0,0-2.77-2,2.49,2.49,0,0,0-2.41,1.57,12.74,12.74,0,0,0-.6,4.87,112.43,112.43,0,0,0,.51,13.54c.28,2.17,1.16,3.25,2.63,3.25s2.67-.89,3.45-2.66a19.44,19.44,0,0,0,1.19-7.68Q314.36,271.83,312.36,268.42Zm-161-4.44a26.7,26.7,0,0,0-1.62-3.37c-.38-.57-.78-.85-1.19-.85-.74,0-1.37.94-1.87,2.86-.08.25-.37,1.26-.9,3a31.64,31.64,0,0,0-1.3,5.21c0,.7.48,1.07,1.43,1.07H152c1.11,0,1.67-.34,1.67-1Q153.64,269.49,151.32,264Zm0,0a26.7,26.7,0,0,0-1.62-3.37c-.38-.57-.78-.85-1.19-.85-.74,0-1.37.94-1.87,2.86-.08.25-.37,1.26-.9,3a31.64,31.64,0,0,0-1.3,5.21c0,.7.48,1.07,1.43,1.07H152c1.11,0,1.67-.34,1.67-1Q153.64,269.49,151.32,264Zm161,4.44a3.5,3.5,0,0,0-2.77-2,2.49,2.49,0,0,0-2.41,1.57,12.74,12.74,0,0,0-.6,4.87,112.43,112.43,0,0,0,.51,13.54c.28,2.17,1.16,3.25,2.63,3.25s2.67-.89,3.45-2.66a19.44,19.44,0,0,0,1.19-7.68Q314.36,271.83,312.36,268.42Zm59-20.45a4.74,4.74,0,0,0-3.6-1.58c-1.54,0-2.3.55-2.3,1.66v14.52c0,1.12.18,1.78.53,2a4,4,0,0,0,2.27.6,4.4,4.4,0,0,0,3.44-1.58c1.36-1.51,2-4.05,2-7.61S372.94,249.62,371.36,248Zm72.92,25.79a43.77,43.77,0,0,0-1.69-7.43c-.69-1.94-1.64-2.93-2.86-3a2.48,2.48,0,0,0-2.2,1.38,7.16,7.16,0,0,0-.82,3.69,49.7,49.7,0,0,0,.69,7,69.64,69.64,0,0,0,1.67,7.83c.65,2.33,1.68,3.51,3.14,3.51,1.85,0,2.76-1.62,2.76-4.84A55.23,55.23,0,0,0,444.28,273.76Zm0,0a43.77,43.77,0,0,0-1.69-7.43c-.69-1.94-1.64-2.93-2.86-3a2.48,2.48,0,0,0-2.2,1.38,7.16,7.16,0,0,0-.82,3.69,49.7,49.7,0,0,0,.69,7,69.64,69.64,0,0,0,1.67,7.83c.65,2.33,1.68,3.51,3.14,3.51,1.85,0,2.76-1.62,2.76-4.84A55.23,55.23,0,0,0,444.28,273.76ZM371.36,248a4.74,4.74,0,0,0-3.6-1.58c-1.54,0-2.3.55-2.3,1.66v14.52c0,1.12.18,1.78.53,2a4,4,0,0,0,2.27.6,4.4,4.4,0,0,0,3.44-1.58c1.36-1.51,2-4.05,2-7.61S372.94,249.62,371.36,248Zm-59,20.45a3.5,3.5,0,0,0-2.77-2,2.49,2.49,0,0,0-2.41,1.57,12.74,12.74,0,0,0-.6,4.87,112.43,112.43,0,0,0,.51,13.54c.28,2.17,1.16,3.25,2.63,3.25s2.67-.89,3.45-2.66a19.44,19.44,0,0,0,1.19-7.68Q314.36,271.83,312.36,268.42Zm-161-4.44a26.7,26.7,0,0,0-1.62-3.37c-.38-.57-.78-.85-1.19-.85-.74,0-1.37.94-1.87,2.86-.08.25-.37,1.26-.9,3a31.64,31.64,0,0,0-1.3,5.21c0,.7.48,1.07,1.43,1.07H152c1.11,0,1.67-.34,1.67-1Q153.64,269.49,151.32,264Zm0,0a26.7,26.7,0,0,0-1.62-3.37c-.38-.57-.78-.85-1.19-.85-.74,0-1.37.94-1.87,2.86-.08.25-.37,1.26-.9,3a31.64,31.64,0,0,0-1.3,5.21c0,.7.48,1.07,1.43,1.07H152c1.11,0,1.67-.34,1.67-1Q153.64,269.49,151.32,264Zm161,4.44a3.5,3.5,0,0,0-2.77-2,2.49,2.49,0,0,0-2.41,1.57,12.74,12.74,0,0,0-.6,4.87,112.43,112.43,0,0,0,.51,13.54c.28,2.17,1.16,3.25,2.63,3.25s2.67-.89,3.45-2.66a19.44,19.44,0,0,0,1.19-7.68Q314.36,271.83,312.36,268.42Zm59-20.45a4.74,4.74,0,0,0-3.6-1.58c-1.54,0-2.3.55-2.3,1.66v14.52c0,1.12.18,1.78.53,2a4,4,0,0,0,2.27.6,4.4,4.4,0,0,0,3.44-1.58c1.36-1.51,2-4.05,2-7.61S372.94,249.62,371.36,248Zm72.92,25.79a43.77,43.77,0,0,0-1.69-7.43c-.69-1.94-1.64-2.93-2.86-3a2.48,2.48,0,0,0-2.2,1.38,7.16,7.16,0,0,0-.82,3.69,49.7,49.7,0,0,0,.69,7,69.64,69.64,0,0,0,1.67,7.83c.65,2.33,1.68,3.51,3.14,3.51,1.85,0,2.76-1.62,2.76-4.84A55.23,55.23,0,0,0,444.28,273.76Zm0,0a43.77,43.77,0,0,0-1.69-7.43c-.69-1.94-1.64-2.93-2.86-3a2.48,2.48,0,0,0-2.2,1.38,7.16,7.16,0,0,0-.82,3.69,49.7,49.7,0,0,0,.69,7,69.64,69.64,0,0,0,1.67,7.83c.65,2.33,1.68,3.51,3.14,3.51,1.85,0,2.76-1.62,2.76-4.84A55.23,55.23,0,0,0,444.28,273.76ZM371.36,248a4.74,4.74,0,0,0-3.6-1.58c-1.54,0-2.3.55-2.3,1.66v14.52c0,1.12.18,1.78.53,2a4,4,0,0,0,2.27.6,4.4,4.4,0,0,0,3.44-1.58c1.36-1.51,2-4.05,2-7.61S372.94,249.62,371.36,248Zm-59,20.45a3.5,3.5,0,0,0-2.77-2,2.49,2.49,0,0,0-2.41,1.57,12.74,12.74,0,0,0-.6,4.87,112.43,112.43,0,0,0,.51,13.54c.28,2.17,1.16,3.25,2.63,3.25s2.67-.89,3.45-2.66a19.44,19.44,0,0,0,1.19-7.68Q314.36,271.83,312.36,268.42Zm-161-4.44a26.7,26.7,0,0,0-1.62-3.37c-.38-.57-.78-.85-1.19-.85-.74,0-1.37.94-1.87,2.86-.08.25-.37,1.26-.9,3a31.64,31.64,0,0,0-1.3,5.21c0,.7.48,1.07,1.43,1.07H152c1.11,0,1.67-.34,1.67-1Q153.64,269.49,151.32,264Zm0,0a26.7,26.7,0,0,0-1.62-3.37c-.38-.57-.78-.85-1.19-.85-.74,0-1.37.94-1.87,2.86-.08.25-.37,1.26-.9,3a31.64,31.64,0,0,0-1.3,5.21c0,.7.48,1.07,1.43,1.07H152c1.11,0,1.67-.34,1.67-1Q153.64,269.49,151.32,264Zm161,4.44a3.5,3.5,0,0,0-2.77-2,2.49,2.49,0,0,0-2.41,1.57,12.74,12.74,0,0,0-.6,4.87,112.43,112.43,0,0,0,.51,13.54c.28,2.17,1.16,3.25,2.63,3.25s2.67-.89,3.45-2.66a19.44,19.44,0,0,0,1.19-7.68Q314.36,271.83,312.36,268.42Zm59-20.45a4.74,4.74,0,0,0-3.6-1.58c-1.54,0-2.3.55-2.3,1.66v14.52c0,1.12.18,1.78.53,2a4,4,0,0,0,2.27.6,4.4,4.4,0,0,0,3.44-1.58c1.36-1.51,2-4.05,2-7.61S372.94,249.62,371.36,248Zm72.92,25.79a43.77,43.77,0,0,0-1.69-7.43c-.69-1.94-1.64-2.93-2.86-3a2.48,2.48,0,0,0-2.2,1.38,7.16,7.16,0,0,0-.82,3.69,49.7,49.7,0,0,0,.69,7,69.64,69.64,0,0,0,1.67,7.83c.65,2.33,1.68,3.51,3.14,3.51,1.85,0,2.76-1.62,2.76-4.84A55.23,55.23,0,0,0,444.28,273.76Zm0,0a43.77,43.77,0,0,0-1.69-7.43c-.69-1.94-1.64-2.93-2.86-3a2.48,2.48,0,0,0-2.2,1.38,7.16,7.16,0,0,0-.82,3.69,49.7,49.7,0,0,0,.69,7,69.64,69.64,0,0,0,1.67,7.83c.65,2.33,1.68,3.51,3.14,3.51,1.85,0,2.76-1.62,2.76-4.84A55.23,55.23,0,0,0,444.28,273.76ZM371.36,248a4.74,4.74,0,0,0-3.6-1.58c-1.54,0-2.3.55-2.3,1.66v14.52c0,1.12.18,1.78.53,2a4,4,0,0,0,2.27.6,4.4,4.4,0,0,0,3.44-1.58c1.36-1.51,2-4.05,2-7.61S372.94,249.62,371.36,248Zm-59,20.45a3.5,3.5,0,0,0-2.77-2,2.49,2.49,0,0,0-2.41,1.57,12.74,12.74,0,0,0-.6,4.87,112.43,112.43,0,0,0,.51,13.54c.28,2.17,1.16,3.25,2.63,3.25s2.67-.89,3.45-2.66a19.44,19.44,0,0,0,1.19-7.68Q314.36,271.83,312.36,268.42Zm-161-4.44a26.7,26.7,0,0,0-1.62-3.37c-.38-.57-.78-.85-1.19-.85-.74,0-1.37.94-1.87,2.86-.08.25-.37,1.26-.9,3a31.64,31.64,0,0,0-1.3,5.21c0,.7.48,1.07,1.43,1.07H152c1.11,0,1.67-.34,1.67-1Q153.64,269.49,151.32,264Zm0,0a26.7,26.7,0,0,0-1.62-3.37c-.38-.57-.78-.85-1.19-.85-.74,0-1.37.94-1.87,2.86-.08.25-.37,1.26-.9,3a31.64,31.64,0,0,0-1.3,5.21c0,.7.48,1.07,1.43,1.07H152c1.11,0,1.67-.34,1.67-1Q153.64,269.49,151.32,264Zm161,4.44a3.5,3.5,0,0,0-2.77-2,2.49,2.49,0,0,0-2.41,1.57,12.74,12.74,0,0,0-.6,4.87,112.43,112.43,0,0,0,.51,13.54c.28,2.17,1.16,3.25,2.63,3.25s2.67-.89,3.45-2.66a19.44,19.44,0,0,0,1.19-7.68Q314.36,271.83,312.36,268.42Zm59-20.45a4.74,4.74,0,0,0-3.6-1.58c-1.54,0-2.3.55-2.3,1.66v14.52c0,1.12.18,1.78.53,2a4,4,0,0,0,2.27.6,4.4,4.4,0,0,0,3.44-1.58c1.36-1.51,2-4.05,2-7.61S372.94,249.62,371.36,248Zm72.92,25.79a43.77,43.77,0,0,0-1.69-7.43c-.69-1.94-1.64-2.93-2.86-3a2.48,2.48,0,0,0-2.2,1.38,7.16,7.16,0,0,0-.82,3.69,49.7,49.7,0,0,0,.69,7,69.64,69.64,0,0,0,1.67,7.83c.65,2.33,1.68,3.51,3.14,3.51,1.85,0,2.76-1.62,2.76-4.84A55.23,55.23,0,0,0,444.28,273.76Zm0,0a43.77,43.77,0,0,0-1.69-7.43c-.69-1.94-1.64-2.93-2.86-3a2.48,2.48,0,0,0-2.2,1.38,7.16,7.16,0,0,0-.82,3.69,49.7,49.7,0,0,0,.69,7,69.64,69.64,0,0,0,1.67,7.83c.65,2.33,1.68,3.51,3.14,3.51,1.85,0,2.76-1.62,2.76-4.84A55.23,55.23,0,0,0,444.28,273.76ZM371.36,248a4.74,4.74,0,0,0-3.6-1.58c-1.54,0-2.3.55-2.3,1.66v14.52c0,1.12.18,1.78.53,2a4,4,0,0,0,2.27.6,4.4,4.4,0,0,0,3.44-1.58c1.36-1.51,2-4.05,2-7.61S372.94,249.62,371.36,248Zm-59,20.45a3.5,3.5,0,0,0-2.77-2,2.49,2.49,0,0,0-2.41,1.57,12.74,12.74,0,0,0-.6,4.87,112.43,112.43,0,0,0,.51,13.54c.28,2.17,1.16,3.25,2.63,3.25s2.67-.89,3.45-2.66a19.44,19.44,0,0,0,1.19-7.68Q314.36,271.83,312.36,268.42Zm-161-4.44a26.7,26.7,0,0,0-1.62-3.37c-.38-.57-.78-.85-1.19-.85-.74,0-1.37.94-1.87,2.86-.08.25-.37,1.26-.9,3a31.64,31.64,0,0,0-1.3,5.21c0,.7.48,1.07,1.43,1.07H152c1.11,0,1.67-.34,1.67-1Q153.64,269.49,151.32,264Zm0,0a26.7,26.7,0,0,0-1.62-3.37c-.38-.57-.78-.85-1.19-.85-.74,0-1.37.94-1.87,2.86-.08.25-.37,1.26-.9,3a31.64,31.64,0,0,0-1.3,5.21c0,.7.48,1.07,1.43,1.07H152c1.11,0,1.67-.34,1.67-1Q153.64,269.49,151.32,264Zm161,4.44a3.5,3.5,0,0,0-2.77-2,2.49,2.49,0,0,0-2.41,1.57,12.74,12.74,0,0,0-.6,4.87,112.43,112.43,0,0,0,.51,13.54c.28,2.17,1.16,3.25,2.63,3.25s2.67-.89,3.45-2.66a19.44,19.44,0,0,0,1.19-7.68Q314.36,271.83,312.36,268.42Zm59-20.45a4.74,4.74,0,0,0-3.6-1.58c-1.54,0-2.3.55-2.3,1.66v14.52c0,1.12.18,1.78.53,2a4,4,0,0,0,2.27.6,4.4,4.4,0,0,0,3.44-1.58c1.36-1.51,2-4.05,2-7.61S372.94,249.62,371.36,248Zm72.92,25.79a43.77,43.77,0,0,0-1.69-7.43c-.69-1.94-1.64-2.93-2.86-3a2.48,2.48,0,0,0-2.2,1.38,7.16,7.16,0,0,0-.82,3.69,49.7,49.7,0,0,0,.69,7,69.64,69.64,0,0,0,1.67,7.83c.65,2.33,1.68,3.51,3.14,3.51,1.85,0,2.76-1.62,2.76-4.84A55.23,55.23,0,0,0,444.28,273.76Zm0,0a43.77,43.77,0,0,0-1.69-7.43c-.69-1.94-1.64-2.93-2.86-3a2.48,2.48,0,0,0-2.2,1.38,7.16,7.16,0,0,0-.82,3.69,49.7,49.7,0,0,0,.69,7,69.64,69.64,0,0,0,1.67,7.83c.65,2.33,1.68,3.51,3.14,3.51,1.85,0,2.76-1.62,2.76-4.84A55.23,55.23,0,0,0,444.28,273.76ZM371.36,248a4.74,4.74,0,0,0-3.6-1.58c-1.54,0-2.3.55-2.3,1.66v14.52c0,1.12.18,1.78.53,2a4,4,0,0,0,2.27.6,4.4,4.4,0,0,0,3.44-1.58c1.36-1.51,2-4.05,2-7.61S372.94,249.62,371.36,248Zm-59,20.45a3.5,3.5,0,0,0-2.77-2,2.49,2.49,0,0,0-2.41,1.57,12.74,12.74,0,0,0-.6,4.87,112.43,112.43,0,0,0,.51,13.54c.28,2.17,1.16,3.25,2.63,3.25s2.67-.89,3.45-2.66a19.44,19.44,0,0,0,1.19-7.68Q314.36,271.83,312.36,268.42Zm-161-4.44a26.7,26.7,0,0,0-1.62-3.37c-.38-.57-.78-.85-1.19-.85-.74,0-1.37.94-1.87,2.86-.08.25-.37,1.26-.9,3a31.64,31.64,0,0,0-1.3,5.21c0,.7.48,1.07,1.43,1.07H152c1.11,0,1.67-.34,1.67-1Q153.64,269.49,151.32,264Zm0,0a26.7,26.7,0,0,0-1.62-3.37c-.38-.57-.78-.85-1.19-.85-.74,0-1.37.94-1.87,2.86-.08.25-.37,1.26-.9,3a31.64,31.64,0,0,0-1.3,5.21c0,.7.48,1.07,1.43,1.07H152c1.11,0,1.67-.34,1.67-1Q153.64,269.49,151.32,264Zm161,4.44a3.5,3.5,0,0,0-2.77-2,2.49,2.49,0,0,0-2.41,1.57,12.74,12.74,0,0,0-.6,4.87,112.43,112.43,0,0,0,.51,13.54c.28,2.17,1.16,3.25,2.63,3.25s2.67-.89,3.45-2.66a19.44,19.44,0,0,0,1.19-7.68Q314.36,271.83,312.36,268.42Zm59-20.45a4.74,4.74,0,0,0-3.6-1.58c-1.54,0-2.3.55-2.3,1.66v14.52c0,1.12.18,1.78.53,2a4,4,0,0,0,2.27.6,4.4,4.4,0,0,0,3.44-1.58c1.36-1.51,2-4.05,2-7.61S372.94,249.62,371.36,248Zm72.92,25.79a43.77,43.77,0,0,0-1.69-7.43c-.69-1.94-1.64-2.93-2.86-3a2.48,2.48,0,0,0-2.2,1.38,7.16,7.16,0,0,0-.82,3.69,49.7,49.7,0,0,0,.69,7,69.64,69.64,0,0,0,1.67,7.83c.65,2.33,1.68,3.51,3.14,3.51,1.85,0,2.76-1.62,2.76-4.84A55.23,55.23,0,0,0,444.28,273.76Zm0,0a43.77,43.77,0,0,0-1.69-7.43c-.69-1.94-1.64-2.93-2.86-3a2.48,2.48,0,0,0-2.2,1.38,7.16,7.16,0,0,0-.82,3.69,49.7,49.7,0,0,0,.69,7,69.64,69.64,0,0,0,1.67,7.83c.65,2.33,1.68,3.51,3.14,3.51,1.85,0,2.76-1.62,2.76-4.84A55.23,55.23,0,0,0,444.28,273.76ZM371.36,248a4.74,4.74,0,0,0-3.6-1.58c-1.54,0-2.3.55-2.3,1.66v14.52c0,1.12.18,1.78.53,2a4,4,0,0,0,2.27.6,4.4,4.4,0,0,0,3.44-1.58c1.36-1.51,2-4.05,2-7.61S372.94,249.62,371.36,248Zm-59,20.45a3.5,3.5,0,0,0-2.77-2,2.49,2.49,0,0,0-2.41,1.57,12.74,12.74,0,0,0-.6,4.87,112.43,112.43,0,0,0,.51,13.54c.28,2.17,1.16,3.25,2.63,3.25s2.67-.89,3.45-2.66a19.44,19.44,0,0,0,1.19-7.68Q314.36,271.83,312.36,268.42Zm-161-4.44a26.7,26.7,0,0,0-1.62-3.37c-.38-.57-.78-.85-1.19-.85-.74,0-1.37.94-1.87,2.86-.08.25-.37,1.26-.9,3a31.64,31.64,0,0,0-1.3,5.21c0,.7.48,1.07,1.43,1.07H152c1.11,0,1.67-.34,1.67-1Q153.64,269.49,151.32,264Zm0,0a26.7,26.7,0,0,0-1.62-3.37c-.38-.57-.78-.85-1.19-.85-.74,0-1.37.94-1.87,2.86-.08.25-.37,1.26-.9,3a31.64,31.64,0,0,0-1.3,5.21c0,.7.48,1.07,1.43,1.07H152c1.11,0,1.67-.34,1.67-1Q153.64,269.49,151.32,264Zm161,4.44a3.5,3.5,0,0,0-2.77-2,2.49,2.49,0,0,0-2.41,1.57,12.74,12.74,0,0,0-.6,4.87,112.43,112.43,0,0,0,.51,13.54c.28,2.17,1.16,3.25,2.63,3.25s2.67-.89,3.45-2.66a19.44,19.44,0,0,0,1.19-7.68Q314.36,271.83,312.36,268.42Zm59-20.45a4.74,4.74,0,0,0-3.6-1.58c-1.54,0-2.3.55-2.3,1.66v14.52c0,1.12.18,1.78.53,2a4,4,0,0,0,2.27.6,4.4,4.4,0,0,0,3.44-1.58c1.36-1.51,2-4.05,2-7.61S372.94,249.62,371.36,248Zm72.92,25.79a43.77,43.77,0,0,0-1.69-7.43c-.69-1.94-1.64-2.93-2.86-3a2.48,2.48,0,0,0-2.2,1.38,7.16,7.16,0,0,0-.82,3.69,49.7,49.7,0,0,0,.69,7,69.64,69.64,0,0,0,1.67,7.83c.65,2.33,1.68,3.51,3.14,3.51,1.85,0,2.76-1.62,2.76-4.84A55.23,55.23,0,0,0,444.28,273.76Zm0,0a43.77,43.77,0,0,0-1.69-7.43c-.69-1.94-1.64-2.93-2.86-3a2.48,2.48,0,0,0-2.2,1.38,7.16,7.16,0,0,0-.82,3.69,49.7,49.7,0,0,0,.69,7,69.64,69.64,0,0,0,1.67,7.83c.65,2.33,1.68,3.51,3.14,3.51,1.85,0,2.76-1.62,2.76-4.84A55.23,55.23,0,0,0,444.28,273.76ZM371.36,248a4.74,4.74,0,0,0-3.6-1.58c-1.54,0-2.3.55-2.3,1.66v14.52c0,1.12.18,1.78.53,2a4,4,0,0,0,2.27.6,4.4,4.4,0,0,0,3.44-1.58c1.36-1.51,2-4.05,2-7.61S372.94,249.62,371.36,248Zm-59,20.45a3.5,3.5,0,0,0-2.77-2,2.49,2.49,0,0,0-2.41,1.57,12.74,12.74,0,0,0-.6,4.87,112.43,112.43,0,0,0,.51,13.54c.28,2.17,1.16,3.25,2.63,3.25s2.67-.89,3.45-2.66a19.44,19.44,0,0,0,1.19-7.68Q314.36,271.83,312.36,268.42Zm-161-4.44a26.7,26.7,0,0,0-1.62-3.37c-.38-.57-.78-.85-1.19-.85-.74,0-1.37.94-1.87,2.86-.08.25-.37,1.26-.9,3a31.64,31.64,0,0,0-1.3,5.21c0,.7.48,1.07,1.43,1.07H152c1.11,0,1.67-.34,1.67-1Q153.64,269.49,151.32,264Zm0,0a26.7,26.7,0,0,0-1.62-3.37c-.38-.57-.78-.85-1.19-.85-.74,0-1.37.94-1.87,2.86-.08.25-.37,1.26-.9,3a31.64,31.64,0,0,0-1.3,5.21c0,.7.48,1.07,1.43,1.07H152c1.11,0,1.67-.34,1.67-1Q153.64,269.49,151.32,264Zm161,4.44a3.5,3.5,0,0,0-2.77-2,2.49,2.49,0,0,0-2.41,1.57,12.74,12.74,0,0,0-.6,4.87,112.43,112.43,0,0,0,.51,13.54c.28,2.17,1.16,3.25,2.63,3.25s2.67-.89,3.45-2.66a19.44,19.44,0,0,0,1.19-7.68Q314.36,271.83,312.36,268.42Zm59-20.45a4.74,4.74,0,0,0-3.6-1.58c-1.54,0-2.3.55-2.3,1.66v14.52c0,1.12.18,1.78.53,2a4,4,0,0,0,2.27.6,4.4,4.4,0,0,0,3.44-1.58c1.36-1.51,2-4.05,2-7.61S372.94,249.62,371.36,248Zm72.92,25.79a43.77,43.77,0,0,0-1.69-7.43c-.69-1.94-1.64-2.93-2.86-3a2.48,2.48,0,0,0-2.2,1.38,7.16,7.16,0,0,0-.82,3.69,49.7,49.7,0,0,0,.69,7,69.64,69.64,0,0,0,1.67,7.83c.65,2.33,1.68,3.51,3.14,3.51,1.85,0,2.76-1.62,2.76-4.84A55.23,55.23,0,0,0,444.28,273.76Zm0,0a43.77,43.77,0,0,0-1.69-7.43c-.69-1.94-1.64-2.93-2.86-3a2.48,2.48,0,0,0-2.2,1.38,7.16,7.16,0,0,0-.82,3.69,49.7,49.7,0,0,0,.69,7,69.64,69.64,0,0,0,1.67,7.83c.65,2.33,1.68,3.51,3.14,3.51,1.85,0,2.76-1.62,2.76-4.84A55.23,55.23,0,0,0,444.28,273.76ZM371.36,248a4.74,4.74,0,0,0-3.6-1.58c-1.54,0-2.3.55-2.3,1.66v14.52c0,1.12.18,1.78.53,2a4,4,0,0,0,2.27.6,4.4,4.4,0,0,0,3.44-1.58c1.36-1.51,2-4.05,2-7.61S372.94,249.62,371.36,248Zm-59,20.45a3.5,3.5,0,0,0-2.77-2,2.49,2.49,0,0,0-2.41,1.57,12.74,12.74,0,0,0-.6,4.87,112.43,112.43,0,0,0,.51,13.54c.28,2.17,1.16,3.25,2.63,3.25s2.67-.89,3.45-2.66a19.44,19.44,0,0,0,1.19-7.68Q314.36,271.83,312.36,268.42Zm-161-4.44a26.7,26.7,0,0,0-1.62-3.37c-.38-.57-.78-.85-1.19-.85-.74,0-1.37.94-1.87,2.86-.08.25-.37,1.26-.9,3a31.64,31.64,0,0,0-1.3,5.21c0,.7.48,1.07,1.43,1.07H152c1.11,0,1.67-.34,1.67-1Q153.64,269.49,151.32,264Zm0,0a26.7,26.7,0,0,0-1.62-3.37c-.38-.57-.78-.85-1.19-.85-.74,0-1.37.94-1.87,2.86-.08.25-.37,1.26-.9,3a31.64,31.64,0,0,0-1.3,5.21c0,.7.48,1.07,1.43,1.07H152c1.11,0,1.67-.34,1.67-1Q153.64,269.49,151.32,264Zm161,4.44a3.5,3.5,0,0,0-2.77-2,2.49,2.49,0,0,0-2.41,1.57,12.74,12.74,0,0,0-.6,4.87,112.43,112.43,0,0,0,.51,13.54c.28,2.17,1.16,3.25,2.63,3.25s2.67-.89,3.45-2.66a19.44,19.44,0,0,0,1.19-7.68Q314.36,271.83,312.36,268.42Zm59-20.45a4.74,4.74,0,0,0-3.6-1.58c-1.54,0-2.3.55-2.3,1.66v14.52c0,1.12.18,1.78.53,2a4,4,0,0,0,2.27.6,4.4,4.4,0,0,0,3.44-1.58c1.36-1.51,2-4.05,2-7.61S372.94,249.62,371.36,248Zm72.92,25.79a43.77,43.77,0,0,0-1.69-7.43c-.69-1.94-1.64-2.93-2.86-3a2.48,2.48,0,0,0-2.2,1.38,7.16,7.16,0,0,0-.82,3.69,49.7,49.7,0,0,0,.69,7,69.64,69.64,0,0,0,1.67,7.83c.65,2.33,1.68,3.51,3.14,3.51,1.85,0,2.76-1.62,2.76-4.84A55.23,55.23,0,0,0,444.28,273.76Zm0,0a43.77,43.77,0,0,0-1.69-7.43c-.69-1.94-1.64-2.93-2.86-3a2.48,2.48,0,0,0-2.2,1.38,7.16,7.16,0,0,0-.82,3.69,49.7,49.7,0,0,0,.69,7,69.64,69.64,0,0,0,1.67,7.83c.65,2.33,1.68,3.51,3.14,3.51,1.85,0,2.76-1.62,2.76-4.84A55.23,55.23,0,0,0,444.28,273.76ZM371.36,248a4.74,4.74,0,0,0-3.6-1.58c-1.54,0-2.3.55-2.3,1.66v14.52c0,1.12.18,1.78.53,2a4,4,0,0,0,2.27.6,4.4,4.4,0,0,0,3.44-1.58c1.36-1.51,2-4.05,2-7.61S372.94,249.62,371.36,248Zm-59,20.45a3.5,3.5,0,0,0-2.77-2,2.49,2.49,0,0,0-2.41,1.57,12.74,12.74,0,0,0-.6,4.87,112.43,112.43,0,0,0,.51,13.54c.28,2.17,1.16,3.25,2.63,3.25s2.67-.89,3.45-2.66a19.44,19.44,0,0,0,1.19-7.68Q314.36,271.83,312.36,268.42Zm-161-4.44a26.7,26.7,0,0,0-1.62-3.37c-.38-.57-.78-.85-1.19-.85-.74,0-1.37.94-1.87,2.86-.08.25-.37,1.26-.9,3a31.64,31.64,0,0,0-1.3,5.21c0,.7.48,1.07,1.43,1.07H152c1.11,0,1.67-.34,1.67-1Q153.64,269.49,151.32,264Zm0,0a26.7,26.7,0,0,0-1.62-3.37c-.38-.57-.78-.85-1.19-.85-.74,0-1.37.94-1.87,2.86-.08.25-.37,1.26-.9,3a31.64,31.64,0,0,0-1.3,5.21c0,.7.48,1.07,1.43,1.07H152c1.11,0,1.67-.34,1.67-1Q153.64,269.49,151.32,264Zm161,4.44a3.5,3.5,0,0,0-2.77-2,2.49,2.49,0,0,0-2.41,1.57,12.74,12.74,0,0,0-.6,4.87,112.43,112.43,0,0,0,.51,13.54c.28,2.17,1.16,3.25,2.63,3.25s2.67-.89,3.45-2.66a19.44,19.44,0,0,0,1.19-7.68Q314.36,271.83,312.36,268.42Zm59-20.45a4.74,4.74,0,0,0-3.6-1.58c-1.54,0-2.3.55-2.3,1.66v14.52c0,1.12.18,1.78.53,2a4,4,0,0,0,2.27.6,4.4,4.4,0,0,0,3.44-1.58c1.36-1.51,2-4.05,2-7.61S372.94,249.62,371.36,248Zm72.92,25.79a43.77,43.77,0,0,0-1.69-7.43c-.69-1.94-1.64-2.93-2.86-3a2.48,2.48,0,0,0-2.2,1.38,7.16,7.16,0,0,0-.82,3.69,49.7,49.7,0,0,0,.69,7,69.64,69.64,0,0,0,1.67,7.83c.65,2.33,1.68,3.51,3.14,3.51,1.85,0,2.76-1.62,2.76-4.84A55.23,55.23,0,0,0,444.28,273.76Zm0,0a43.77,43.77,0,0,0-1.69-7.43c-.69-1.94-1.64-2.93-2.86-3a2.48,2.48,0,0,0-2.2,1.38,7.16,7.16,0,0,0-.82,3.69,49.7,49.7,0,0,0,.69,7,69.64,69.64,0,0,0,1.67,7.83c.65,2.33,1.68,3.51,3.14,3.51,1.85,0,2.76-1.62,2.76-4.84A55.23,55.23,0,0,0,444.28,273.76ZM371.36,248a4.74,4.74,0,0,0-3.6-1.58c-1.54,0-2.3.55-2.3,1.66v14.52c0,1.12.18,1.78.53,2a4,4,0,0,0,2.27.6,4.4,4.4,0,0,0,3.44-1.58c1.36-1.51,2-4.05,2-7.61S372.94,249.62,371.36,248Zm-59,20.45a3.5,3.5,0,0,0-2.77-2,2.49,2.49,0,0,0-2.41,1.57,12.74,12.74,0,0,0-.6,4.87,112.43,112.43,0,0,0,.51,13.54c.28,2.17,1.16,3.25,2.63,3.25s2.67-.89,3.45-2.66a19.44,19.44,0,0,0,1.19-7.68Q314.36,271.83,312.36,268.42Zm-161-4.44a26.7,26.7,0,0,0-1.62-3.37c-.38-.57-.78-.85-1.19-.85-.74,0-1.37.94-1.87,2.86-.08.25-.37,1.26-.9,3a31.64,31.64,0,0,0-1.3,5.21c0,.7.48,1.07,1.43,1.07H152c1.11,0,1.67-.34,1.67-1Q153.64,269.49,151.32,264Zm0,0a26.7,26.7,0,0,0-1.62-3.37c-.38-.57-.78-.85-1.19-.85-.74,0-1.37.94-1.87,2.86-.08.25-.37,1.26-.9,3a31.64,31.64,0,0,0-1.3,5.21c0,.7.48,1.07,1.43,1.07H152c1.11,0,1.67-.34,1.67-1Q153.64,269.49,151.32,264Zm161,4.44a3.5,3.5,0,0,0-2.77-2,2.49,2.49,0,0,0-2.41,1.57,12.74,12.74,0,0,0-.6,4.87,112.43,112.43,0,0,0,.51,13.54c.28,2.17,1.16,3.25,2.63,3.25s2.67-.89,3.45-2.66a19.44,19.44,0,0,0,1.19-7.68Q314.36,271.83,312.36,268.42Zm59-20.45a4.74,4.74,0,0,0-3.6-1.58c-1.54,0-2.3.55-2.3,1.66v14.52c0,1.12.18,1.78.53,2a4,4,0,0,0,2.27.6,4.4,4.4,0,0,0,3.44-1.58c1.36-1.51,2-4.05,2-7.61S372.94,249.62,371.36,248Zm0,0a4.74,4.74,0,0,0-3.6-1.58c-1.54,0-2.3.55-2.3,1.66v14.52c0,1.12.18,1.78.53,2a4,4,0,0,0,2.27.6,4.4,4.4,0,0,0,3.44-1.58c1.36-1.51,2-4.05,2-7.61S372.94,249.62,371.36,248Zm-59,20.45a3.5,3.5,0,0,0-2.77-2,2.49,2.49,0,0,0-2.41,1.57,12.74,12.74,0,0,0-.6,4.87,112.43,112.43,0,0,0,.51,13.54c.28,2.17,1.16,3.25,2.63,3.25s2.67-.89,3.45-2.66a19.44,19.44,0,0,0,1.19-7.68Q314.36,271.83,312.36,268.42Zm-161-4.44a26.7,26.7,0,0,0-1.62-3.37c-.38-.57-.78-.85-1.19-.85-.74,0-1.37.94-1.87,2.86-.08.25-.37,1.26-.9,3a31.64,31.64,0,0,0-1.3,5.21c0,.7.48,1.07,1.43,1.07H152c1.11,0,1.67-.34,1.67-1Q153.64,269.49,151.32,264Zm0,0a26.7,26.7,0,0,0-1.62-3.37c-.38-.57-.78-.85-1.19-.85-.74,0-1.37.94-1.87,2.86-.08.25-.37,1.26-.9,3a31.64,31.64,0,0,0-1.3,5.21c0,.7.48,1.07,1.43,1.07H152c1.11,0,1.67-.34,1.67-1Q153.64,269.49,151.32,264Zm0,0a26.7,26.7,0,0,0-1.62-3.37c-.38-.57-.78-.85-1.19-.85-.74,0-1.37.94-1.87,2.86-.08.25-.37,1.26-.9,3a31.64,31.64,0,0,0-1.3,5.21c0,.7.48,1.07,1.43,1.07H152c1.11,0,1.67-.34,1.67-1Q153.64,269.49,151.32,264Zm0,0a26.7,26.7,0,0,0-1.62-3.37c-.38-.57-.78-.85-1.19-.85-.74,0-1.37.94-1.87,2.86-.08.25-.37,1.26-.9,3a31.64,31.64,0,0,0-1.3,5.21c0,.7.48,1.07,1.43,1.07H152c1.11,0,1.67-.34,1.67-1Q153.64,269.49,151.32,264Zm0,0a26.7,26.7,0,0,0-1.62-3.37c-.38-.57-.78-.85-1.19-.85-.74,0-1.37.94-1.87,2.86-.08.25-.37,1.26-.9,3a31.64,31.64,0,0,0-1.3,5.21c0,.7.48,1.07,1.43,1.07H152c1.11,0,1.67-.34,1.67-1Q153.64,269.49,151.32,264Z"/><path d="M489.14,233.3l-.09-.11c-3.11-3.5-8.84-10-2.23-17.86a27.5,27.5,0,0,0-1.67-2.82,4.88,4.88,0,0,0-1,1.68c.45,10.41-7.85,11.38-11,11.75-11.71,1.36-21.31-1.44-28.6-8.31-3-2.89-5-6.82-6.5-10.28a10.08,10.08,0,0,1-.77-5.36A10.07,10.07,0,0,1,430,205.2c-5.92.36-13.81.82-20-6H126.32A24.54,24.54,0,0,1,121,203a30.41,30.41,0,0,1-7.64,2.88c-6.89,1.57-11.71-.7-14.38-6.75h-.31a12.32,12.32,0,0,1,1.87,7.63c-.6,5.32-5.29,9-9.3,11.67a47.91,47.91,0,0,1-26.39,7.74c-4,0-7-1-9-3.11-1.85-2-2.64-4.78-2.35-8.23a6,6,0,0,0-.31-2.33,5.92,5.92,0,0,0-.59-1.29,31.06,31.06,0,0,0-2.32,3.63c4.09,9.69,3.53,13.63-3.65,20.64v80.62a30.07,30.07,0,0,0,30.07,30.07H460.15a30.07,30.07,0,0,0,30.08-30.07V234.44C489.86,234.09,489.49,233.7,489.14,233.3ZM122.65,306.22a14.15,14.15,0,0,1-5.24,3.93,16.13,16.13,0,0,1-6.64,1.45,21.37,21.37,0,0,1-8.68-2.1,113.32,113.32,0,0,1-13.67-7.9,15.65,15.65,0,0,0-3.57-1.77,10.28,10.28,0,0,0-3.29-.7,5.63,5.63,0,0,0-1.06.12,3.34,3.34,0,0,1-.59.05,1.14,1.14,0,0,1-1-.71,3.51,3.51,0,0,1-.39-1.77,5.6,5.6,0,0,1,.93-3.29,4.42,4.42,0,0,1,3.67-2l1.68,0c.45,0,.68-.28.68-.85A7.44,7.44,0,0,0,84.23,288,41.83,41.83,0,0,1,80,279.44a39.91,39.91,0,0,1-2.12-13,36.22,36.22,0,0,1,3.46-16.06A25.08,25.08,0,0,1,91,239.68a20.21,20.21,0,0,1,10.41-3.11,19.35,19.35,0,0,1,9.41,2.73q6.45,3.58,10.11,12.12a41.23,41.23,0,0,1,3.39,16.41A36.28,36.28,0,0,1,120.29,285a24.37,24.37,0,0,1-4.64,6.29,16.71,16.71,0,0,1-5.65,3.83c-.5.19-.74.48-.74.85,0,1,.91,1.92,2.74,2.69a16.2,16.2,0,0,0,6.3,1.16,7.81,7.81,0,0,0,4.13-1.2,1.41,1.41,0,0,1,.72-.26c.33,0,.66.35,1,1.07a5,5,0,0,1,.5,2.13A7.49,7.49,0,0,1,122.65,306.22ZM176,295.58q-2.73,1.37-9,1.37a49.31,49.31,0,0,1-10.4-.81,4.43,4.43,0,0,1-2.48-1.56,4.49,4.49,0,0,1-.91-2.84,3.45,3.45,0,0,1,.48-2,4.07,4.07,0,0,1,1.79-1.31,2.36,2.36,0,0,0,1.46-2.31c0-1.9-.84-3-2.52-3.37a43.51,43.51,0,0,0-7.61-.51c-2.76,0-4.41.22-5,.68a3.5,3.5,0,0,0-.87,1.54,6.64,6.64,0,0,0-.37,2.13,1.93,1.93,0,0,0,.26,1.22,7.48,7.48,0,0,0,1.73.92,3,3,0,0,1,1.89,3.07c0,3.4-2.95,5.08-8.85,5.08a21.39,21.39,0,0,1-7.4-.93c-1.46-.61-2.18-1.92-2.18-3.93a3.76,3.76,0,0,1,.48-2.06,4.36,4.36,0,0,1,1.72-1.32,6.93,6.93,0,0,0,3.07-2.75,47.14,47.14,0,0,0,3-7.59l4.39-13.18q2.43-7.27,3.25-10.88a32.8,32.8,0,0,0,.85-7.07,29.79,29.79,0,0,1,.34-5.09,6.82,6.82,0,0,1,1.32-2.8,6.47,6.47,0,0,1,5.46-3c2.09,0,4.1,1.13,6,3.37q4,4.62,11.56,26.87l5.88,17.29a12.77,12.77,0,0,0,1.41,3.13,2.68,2.68,0,0,0,1.71,1c1.48.32,2.23,1.35,2.23,3.12A4.64,4.64,0,0,1,176,295.58Zm64.69-11a4.89,4.89,0,0,0,.56,1.71,13.86,13.86,0,0,0,2,1.71,3.23,3.23,0,0,1,1.18,2.73,4.94,4.94,0,0,1-2.81,4.72c-1.88,1-4.91,1.47-9.12,1.47q-5.53,0-8.18-1.49a4.53,4.53,0,0,1-2.4-4.23,4.47,4.47,0,0,1,1.84-3.79,4.1,4.1,0,0,0,1.23-1.37,11.54,11.54,0,0,0,.64-2.52,59,59,0,0,0,.55-8.8c0-1.79-.19-2.91-.58-3.33s-1.38-.64-3-.64q-5.56,0-7.08.86c-.42.23-.69.89-.79,2q-.18,2.06-.18,5c0,3.24.33,5.58,1,7a6.44,6.44,0,0,0,1.62,1.76,4,4,0,0,1,1.31,3.37,5,5,0,0,1-3,4.57q-3,1.57-8.61,1.57a20.62,20.62,0,0,1-8.33-1.44,5.42,5.42,0,0,1-2.2-1.82,4.59,4.59,0,0,1-.79-2.58,3.84,3.84,0,0,1,.51-2.18,8.87,8.87,0,0,1,2.16-2,3.24,3.24,0,0,0,1.23-1.54,13.16,13.16,0,0,0,.55-3.17q.47-5,.47-13.06c0-1,0-2.18,0-3.55q-.12-10.23-.12-11.69a15.25,15.25,0,0,0-.45-4.86,6.85,6.85,0,0,0-2.54-2.57,3,3,0,0,1-1.37-2.69c0-2.89,2-4.87,6.1-6a27.29,27.29,0,0,1,7.27-1q9.7,0,9.7,5.51a5.24,5.24,0,0,1-.5,2.44,7.45,7.45,0,0,1-1.89,2.08,4.61,4.61,0,0,0-1.54,2.69,43.32,43.32,0,0,0-.33,6.75c0,2,.27,3.23.81,3.68a2.26,2.26,0,0,0,1.41.5c.64.07,2.12.1,4.47.1a10,10,0,0,0,4-.47c.51-.32.77-1.1.77-2.35a55.46,55.46,0,0,0-.37-7.87,4.61,4.61,0,0,0-1.46-3,7,7,0,0,1-1.8-1.81,3.78,3.78,0,0,1-.43-2,5.56,5.56,0,0,1,1-3.18,4.78,4.78,0,0,1,2.52-1.95,26.35,26.35,0,0,1,8.12-1.06c3.8,0,6.62.48,8.43,1.42a4.74,4.74,0,0,1,2.73,4.47,4.29,4.29,0,0,1-1.93,3.84,4.55,4.55,0,0,0-1.58,1.47,8.4,8.4,0,0,0-.6,2.64q-.12,1-.3,9.47t-.2,13.37A76,76,0,0,0,240.68,284.56Zm40.91,11.15a24.61,24.61,0,0,1-7.53,1.24,3.17,3.17,0,0,1-2-.47,2.54,2.54,0,0,1-.64-1.83c-.11-1.77-.5-2.66-1.19-2.66a1.07,1.07,0,0,0-.68.24c-.21.16-.85.73-1.89,1.73a9.76,9.76,0,0,1-6.75,2.94c-4,0-6.8-1.57-8.43-4.74q-2.09-4-2.08-13.36c0-2.33,0-4.33,0-6v-2a22.12,22.12,0,0,0-.48-5.41,5.08,5.08,0,0,0-1.76-2.71,6.07,6.07,0,0,1-1.53-1.37,2.46,2.46,0,0,1-.33-1.4q0-3.24,3.57-4.32a42.2,42.2,0,0,1,12.19-1.83c1.22,0,1.83.72,1.83,2.13V279.1c0,5,1.19,7.43,3.58,7.43a2.76,2.76,0,0,0,1.76-.71,3.65,3.65,0,0,0,1.22-1.73q.69-2.05.69-9.13a85.68,85.68,0,0,0-.35-9.57,3.71,3.71,0,0,0-.43-1.55,4.77,4.77,0,0,0-1.18-1.14,3.85,3.85,0,0,1-1.77-3.24q0-2.65,3-3.68a35.61,35.61,0,0,1,11.41-2q3.13,0,3.14,4.57c0,.31,0,1,0,1.92,0,1.36-.07,3-.09,5v18.83a3.31,3.31,0,0,0,1.8,2.64,3.38,3.38,0,0,1,1.53,3C288.21,292.33,286,294.32,281.59,295.71Zm39.7-3.89a14.87,14.87,0,0,1-11.38,5.38,14.54,14.54,0,0,1-5.83-1.13,22,22,0,0,1-5.67-3.86,1.44,1.44,0,0,0-.75-.39,7.12,7.12,0,0,0-1.93.82,4,4,0,0,1-1.89.42c-1.29,0-1.93-.57-1.93-1.71a6.29,6.29,0,0,1,.15-1.27,42.48,42.48,0,0,0,.85-6.88q.21-4.09.21-13V258.43a34.35,34.35,0,0,0-.25-5.51,2.62,2.62,0,0,0-1.4-1.75,6.62,6.62,0,0,1-2.23-1.86,4.09,4.09,0,0,1-.62-2.32c0-1.92,1.47-3.77,4.45-5.6a26.5,26.5,0,0,1,6-2.54,21.89,21.89,0,0,1,6.2-1.08c1.09,0,1.64.84,1.62,2.55L306.52,257v.95c0,.57.13.86.41.86s.55-.39,1.24-1.17c2.43-2.72,5.09-4.09,8-4.09s5.46,1.44,7.67,4.31Q328,263.25,328,272,328,284.4,321.29,291.82Zm61.55-22a14.58,14.58,0,0,1-11.07,4.91,33.69,33.69,0,0,1-4-.3c-.84-.09-1.37-.12-1.58-.12-.59,0-.9.46-.9,1.4v.26l.22,7A7.93,7.93,0,0,0,366,286a5.9,5.9,0,0,0,2,2.08,4.12,4.12,0,0,1,2,3.24q0,2.7-3,4.15a20,20,0,0,1-8.46,1.44q-11.51,0-11.5-5.42a3.28,3.28,0,0,1,.49-2,11.12,11.12,0,0,1,2.34-2,3.19,3.19,0,0,0,1.3-2.27c.12-1,.21-4.08.25-9.35V253.48A20.26,20.26,0,0,0,351,248a3.63,3.63,0,0,0-2.36-1.91,3.9,3.9,0,0,1-2.8-3.84,3.7,3.7,0,0,1,1.19-2.94,5.05,5.05,0,0,1,3.41-1c.51,0,1.74,0,3.71.12H356c3.44,0,5.46-.07,6.05-.1s2.69-.3,6.33-.75a23.58,23.58,0,0,1,3.29-.27,15.12,15.12,0,0,1,9.07,2.87q6.93,4.95,6.93,15.71Q387.68,264.55,382.84,269.79Zm38.64-2.41a11,11,0,0,1-1.78,3.48,6,6,0,0,1-4.88,2.6,4.35,4.35,0,0,1-2.65-.77,15,15,0,0,1-2.82-3.11c-.43-.6-.84-.9-1.21-.9-.58,0-.95.45-1.14,1.35a38.05,38.05,0,0,0-.26,5.65,72.94,72.94,0,0,0,.34,8.8,2.77,2.77,0,0,0,2.27,2.77,4.06,4.06,0,0,1,2.79,4,5.23,5.23,0,0,1-.9,3.06,4.25,4.25,0,0,1-2.39,1.72,33.83,33.83,0,0,1-8.77.85c-3.65,0-6.45-.44-8.35-1.32a4.22,4.22,0,0,1-2.55-4.14,5.31,5.31,0,0,1,1.87-4,5.66,5.66,0,0,0,1.24-1.48,5.33,5.33,0,0,0,.46-1.81,132.82,132.82,0,0,0,.5-14.39,8.83,8.83,0,0,0-.31-2.75,2.58,2.58,0,0,0-1.25-1.35,3.75,3.75,0,0,1-2.21-3.46,4.74,4.74,0,0,1,1.53-3.52,16.44,16.44,0,0,1,5.1-2.93,23.44,23.44,0,0,1,8.15-2c1.09,0,1.76.22,2,.65a15,15,0,0,1,.64,4.09c.1,1.26.42,1.88,1,1.88s.81-.41,1.18-1.24c1.66-3.55,3.82-5.33,6.5-5.33a5.48,5.48,0,0,1,4.63,2.52,10.68,10.68,0,0,1,1.43,3.18,12.8,12.8,0,0,1-.12,7.86ZM452.87,291c-3.93,4.13-8.45,6.19-13.52,6.19a14.63,14.63,0,0,1-12-5.8q-4.46-5.64-4.46-14.69,0-10.08,5.47-16.49,5.7-6.75,13.89-6.74a14.09,14.09,0,0,1,10,4,20.92,20.92,0,0,1,4.94,7.56,27.28,27.28,0,0,1,1.93,10.17A22,22,0,0,1,452.87,291Z"/><path class="cls-2" d="M244.38,290.71a4.94,4.94,0,0,1-2.81,4.72c-1.88,1-4.91,1.47-9.12,1.47q-5.53,0-8.18-1.49a4.53,4.53,0,0,1-2.4-4.23,4.47,4.47,0,0,1,1.84-3.79,4.1,4.1,0,0,0,1.23-1.37,11.54,11.54,0,0,0,.64-2.52,59,59,0,0,0,.55-8.8c0-1.79-.19-2.91-.58-3.33s-1.38-.64-3-.64q-5.56,0-7.08.86c-.42.23-.69.89-.79,2q-.18,2.06-.18,5c0,3.24.33,5.58,1,7a6.44,6.44,0,0,0,1.62,1.76,4,4,0,0,1,1.31,3.37,5,5,0,0,1-3,4.57q-3,1.57-8.61,1.57a20.62,20.62,0,0,1-8.33-1.44,5.42,5.42,0,0,1-2.2-1.82,4.59,4.59,0,0,1-.79-2.58,3.84,3.84,0,0,1,.51-2.18,8.87,8.87,0,0,1,2.16-2,3.24,3.24,0,0,0,1.23-1.54,13.16,13.16,0,0,0,.55-3.17q.47-5,.47-13.06c0-1,0-2.18,0-3.55q-.12-10.23-.12-11.69a15.25,15.25,0,0,0-.45-4.86,6.85,6.85,0,0,0-2.54-2.57,3,3,0,0,1-1.37-2.69c0-2.89,2-4.87,6.1-6a27.29,27.29,0,0,1,7.27-1q9.7,0,9.7,5.51a5.24,5.24,0,0,1-.5,2.44,7.45,7.45,0,0,1-1.89,2.08,4.61,4.61,0,0,0-1.54,2.69,43.32,43.32,0,0,0-.33,6.75c0,2,.27,3.23.81,3.68a2.26,2.26,0,0,0,1.41.5c.64.07,2.12.1,4.47.1a10,10,0,0,0,4-.47c.51-.32.77-1.1.77-2.35a55.46,55.46,0,0,0-.37-7.87,4.61,4.61,0,0,0-1.46-3,7,7,0,0,1-1.8-1.81,3.78,3.78,0,0,1-.43-2,5.56,5.56,0,0,1,1-3.18,4.78,4.78,0,0,1,2.52-1.95,26.35,26.35,0,0,1,8.12-1.06c3.8,0,6.62.48,8.43,1.42a4.74,4.74,0,0,1,2.73,4.47,4.29,4.29,0,0,1-1.93,3.84,4.55,4.55,0,0,0-1.58,1.47,8.4,8.4,0,0,0-.6,2.64q-.12,1-.3,9.47t-.2,13.37a76,76,0,0,0,.47,11,4.89,4.89,0,0,0,.56,1.71,13.86,13.86,0,0,0,2,1.71A3.23,3.23,0,0,1,244.38,290.71Z"/><path class="cls-2" d="M457.13,265.09a20.92,20.92,0,0,0-4.94-7.56,14.09,14.09,0,0,0-10-4q-8.18,0-13.89,6.74-5.47,6.42-5.47,16.49,0,9.06,4.46,14.69a14.63,14.63,0,0,0,12,5.8c5.07,0,9.59-2.06,13.52-6.19a22,22,0,0,0,6.19-15.75A27.28,27.28,0,0,0,457.13,265.09Zm-14.92,21.66c-1.46,0-2.49-1.18-3.14-3.51a69.64,69.64,0,0,1-1.67-7.83,49.7,49.7,0,0,1-.69-7,7.16,7.16,0,0,1,.82-3.69,2.48,2.48,0,0,1,2.2-1.38c1.22,0,2.17,1,2.86,3a43.77,43.77,0,0,1,1.69,7.43,55.23,55.23,0,0,1,.69,8.15C445,285.13,444.06,286.75,442.21,286.75Z"/><path class="cls-2" d="M422.16,263.26a13.51,13.51,0,0,1-.68,4.12,11,11,0,0,1-1.78,3.48,6,6,0,0,1-4.88,2.6,4.35,4.35,0,0,1-2.65-.77,15,15,0,0,1-2.82-3.11c-.43-.6-.84-.9-1.21-.9-.58,0-.95.45-1.14,1.35a38.05,38.05,0,0,0-.26,5.65,72.94,72.94,0,0,0,.34,8.8,2.77,2.77,0,0,0,2.27,2.77,4.06,4.06,0,0,1,2.79,4,5.23,5.23,0,0,1-.9,3.06,4.25,4.25,0,0,1-2.39,1.72,33.83,33.83,0,0,1-8.77.85c-3.65,0-6.45-.44-8.35-1.32a4.22,4.22,0,0,1-2.55-4.14,5.31,5.31,0,0,1,1.87-4,5.66,5.66,0,0,0,1.24-1.48,5.33,5.33,0,0,0,.46-1.81,132.82,132.82,0,0,0,.5-14.39,8.83,8.83,0,0,0-.31-2.75,2.58,2.58,0,0,0-1.25-1.35,3.75,3.75,0,0,1-2.21-3.46,4.74,4.74,0,0,1,1.53-3.52,16.44,16.44,0,0,1,5.1-2.93,23.44,23.44,0,0,1,8.15-2c1.09,0,1.76.22,2,.65a15,15,0,0,1,.64,4.09c.1,1.26.42,1.88,1,1.88s.81-.41,1.18-1.24c1.66-3.55,3.82-5.33,6.5-5.33a5.48,5.48,0,0,1,4.63,2.52,10.68,10.68,0,0,1,1.43,3.18A13.63,13.63,0,0,1,422.16,263.26Z"/><path class="cls-2" d="M380.75,240.11a15.12,15.12,0,0,0-9.07-2.87,23.58,23.58,0,0,0-3.29.27q-5.46.68-6.33.75c-.59,0-2.61.07-6.05.1h-1.86c-2-.09-3.2-.12-3.71-.12a5.05,5.05,0,0,0-3.41,1,3.7,3.7,0,0,0-1.19,2.94,3.9,3.9,0,0,0,2.8,3.84A3.63,3.63,0,0,1,351,248a20.26,20.26,0,0,1,.44,5.53v22.46c0,5.27-.13,8.38-.25,9.35a3.19,3.19,0,0,1-1.3,2.27,11.12,11.12,0,0,0-2.34,2,3.28,3.28,0,0,0-.49,2q0,5.43,11.5,5.42a20,20,0,0,0,8.46-1.44q3-1.45,3-4.15a4.12,4.12,0,0,0-2-3.24,5.9,5.9,0,0,1-2-2.08,7.93,7.93,0,0,1-.54-3.05l-.22-7v-.26c0-.94.31-1.4.9-1.4.21,0,.74,0,1.58.12a33.69,33.69,0,0,0,4,.3,14.58,14.58,0,0,0,11.07-4.91q4.83-5.25,4.84-14Q387.68,245.07,380.75,240.11ZM371.7,263.6a4.4,4.4,0,0,1-3.44,1.58,4,4,0,0,1-2.27-.6c-.35-.23-.53-.89-.53-2V248.05c0-1.11.76-1.66,2.3-1.66a4.74,4.74,0,0,1,3.6,1.58c1.58,1.65,2.37,4.33,2.37,8S373.06,262.09,371.7,263.6Z"/><path class="cls-2" d="M323.86,257.83q-3.32-4.3-7.67-4.31c-2.93,0-5.59,1.37-8,4.09-.69.78-1.1,1.17-1.24,1.17s-.41-.29-.41-.86V257l.41-16.65c0-1.71-.53-2.55-1.62-2.55a21.89,21.89,0,0,0-6.2,1.08,26.5,26.5,0,0,0-6,2.54c-3,1.83-4.45,3.68-4.45,5.6a4.09,4.09,0,0,0,.62,2.32,6.62,6.62,0,0,0,2.23,1.86,2.62,2.62,0,0,1,1.4,1.75,34.35,34.35,0,0,1,.25,5.51v11.79q0,8.88-.21,13a42.48,42.48,0,0,1-.85,6.88,6.29,6.29,0,0,0-.15,1.27c0,1.14.64,1.71,1.93,1.71a4,4,0,0,0,1.89-.42,7.12,7.12,0,0,1,1.93-.82,1.44,1.44,0,0,1,.75.39,22,22,0,0,0,5.67,3.86,14.54,14.54,0,0,0,5.83,1.13,14.87,14.87,0,0,0,11.38-5.38Q328,284.4,328,272,328,263.26,323.86,257.83ZM313.17,287c-.78,1.77-1.94,2.66-3.45,2.66s-2.35-1.08-2.63-3.25a112.43,112.43,0,0,1-.51-13.54,12.74,12.74,0,0,1,.6-4.87,2.49,2.49,0,0,1,2.41-1.57,3.5,3.5,0,0,1,2.77,2q2,3.42,2,10.85A19.44,19.44,0,0,1,313.17,287Z"/><path class="cls-2" d="M288.21,289.78c0,2.55-2.2,4.54-6.62,5.93a24.61,24.61,0,0,1-7.53,1.24,3.17,3.17,0,0,1-2-.47,2.54,2.54,0,0,1-.64-1.83c-.11-1.77-.5-2.66-1.19-2.66a1.07,1.07,0,0,0-.68.24c-.21.16-.85.73-1.89,1.73a9.76,9.76,0,0,1-6.75,2.94c-4,0-6.8-1.57-8.43-4.74q-2.09-4-2.08-13.36c0-2.33,0-4.33,0-6v-2a22.12,22.12,0,0,0-.48-5.41,5.08,5.08,0,0,0-1.76-2.71,6.07,6.07,0,0,1-1.53-1.37,2.46,2.46,0,0,1-.33-1.4q0-3.24,3.57-4.32a42.2,42.2,0,0,1,12.19-1.83c1.22,0,1.83.72,1.83,2.13V279.1c0,5,1.19,7.43,3.58,7.43a2.76,2.76,0,0,0,1.76-.71,3.65,3.65,0,0,0,1.22-1.73q.69-2.05.69-9.13a85.68,85.68,0,0,0-.35-9.57,3.71,3.71,0,0,0-.43-1.55,4.77,4.77,0,0,0-1.18-1.14,3.85,3.85,0,0,1-1.77-3.24q0-2.65,3-3.68a35.61,35.61,0,0,1,11.41-2q3.13,0,3.14,4.57c0,.31,0,1,0,1.92,0,1.36-.07,3-.09,5v18.83a3.31,3.31,0,0,0,1.8,2.64A3.38,3.38,0,0,1,288.21,289.78Z"/><path class="cls-2" d="M176.5,288a2.68,2.68,0,0,1-1.71-1,12.77,12.77,0,0,1-1.41-3.13l-5.88-17.29q-7.58-22.26-11.56-26.87c-1.9-2.24-3.91-3.37-6-3.37a6.47,6.47,0,0,0-5.46,3,6.82,6.82,0,0,0-1.32,2.8,29.79,29.79,0,0,0-.34,5.09,32.8,32.8,0,0,1-.85,7.07q-.83,3.62-3.25,10.88l-4.39,13.18a47.14,47.14,0,0,1-3,7.59,6.93,6.93,0,0,1-3.07,2.75,4.36,4.36,0,0,0-1.72,1.32,3.76,3.76,0,0,0-.48,2.06c0,2,.72,3.32,2.18,3.93a21.39,21.39,0,0,0,7.4.93c5.9,0,8.85-1.68,8.85-5.08a3,3,0,0,0-1.89-3.07,7.48,7.48,0,0,1-1.73-.92,1.93,1.93,0,0,1-.26-1.22,6.64,6.64,0,0,1,.37-2.13,3.5,3.5,0,0,1,.87-1.54c.54-.46,2.19-.68,5-.68a43.51,43.51,0,0,1,7.61.51c1.68.34,2.52,1.47,2.52,3.37a2.36,2.36,0,0,1-1.46,2.31,4.07,4.07,0,0,0-1.79,1.31,3.45,3.45,0,0,0-.48,2,4.49,4.49,0,0,0,.91,2.84,4.43,4.43,0,0,0,2.48,1.56A49.31,49.31,0,0,0,167,297q6.22,0,9-1.37a4.64,4.64,0,0,0,2.74-4.48C178.73,289.33,178,288.3,176.5,288ZM152,271.93h-6.1c-1,0-1.43-.37-1.43-1.07a31.64,31.64,0,0,1,1.3-5.21c.53-1.77.82-2.78.9-3,.5-1.92,1.13-2.86,1.87-2.86.41,0,.81.28,1.19.85a26.7,26.7,0,0,1,1.62,3.37q2.33,5.5,2.32,6.92C153.64,271.59,153.08,271.93,152,271.93Z"/><path class="cls-2" d="M124.14,299.47c-.33-.72-.66-1.07-1-1.07a1.41,1.41,0,0,0-.72.26,7.81,7.81,0,0,1-4.13,1.2,16.2,16.2,0,0,1-6.3-1.16c-1.83-.77-2.74-1.67-2.74-2.69,0-.37.24-.66.74-.85a16.71,16.71,0,0,0,5.65-3.83,24.37,24.37,0,0,0,4.64-6.29,36.28,36.28,0,0,0,4.07-17.21A41.23,41.23,0,0,0,121,251.42q-3.68-8.52-10.11-12.12a19.35,19.35,0,0,0-9.41-2.73A20.21,20.21,0,0,0,91,239.68a25.08,25.08,0,0,0-9.73,10.72,36.22,36.22,0,0,0-3.46,16.06,39.91,39.91,0,0,0,2.12,13A41.83,41.83,0,0,0,84.23,288a7.44,7.44,0,0,1,1.27,2.69c0,.57-.23.85-.68.85l-1.68,0a4.42,4.42,0,0,0-3.67,2,5.6,5.6,0,0,0-.93,3.29,3.51,3.51,0,0,0,.39,1.77,1.14,1.14,0,0,0,1,.71,3.34,3.34,0,0,0,.59-.05,5.63,5.63,0,0,1,1.06-.12,10.28,10.28,0,0,1,3.29.7,15.65,15.65,0,0,1,3.57,1.77,113.32,113.32,0,0,0,13.67,7.9,21.37,21.37,0,0,0,8.68,2.1,16.13,16.13,0,0,0,6.64-1.45,14.15,14.15,0,0,0,5.24-3.93,7.49,7.49,0,0,0,2-4.62A5,5,0,0,0,124.14,299.47Zm-20.55-14.4c-2.53,0-4.64-2.21-6.34-6.66a63.89,63.89,0,0,1-3-10.54,53.5,53.5,0,0,1-1.11-10.34,12.19,12.19,0,0,1,1.38-6.3A4.28,4.28,0,0,1,98.37,249q4,.17,6.46,6.19A57.3,57.3,0,0,1,108,265.87a55,55,0,0,1,1.25,10.88,10.33,10.33,0,0,1-1.61,6A4.74,4.74,0,0,1,103.59,285.07Z"/><path class="cls-2" d="M519.06,160.93c-14.32-16.6-34.2-26.11-54.6-26.11h-.58a87.21,87.21,0,0,0-39.46,9.37c-11.28,5.67-19,14.52-21.66,24.92-2.39,9.3-.51,19.1,5.31,27.6a23.54,23.54,0,0,0,1.92,2.44c6.22,6.87,14.11,6.41,20,6A10.07,10.07,0,0,0,437.3,202a10.08,10.08,0,0,0,.77,5.36c1.51,3.46,3.46,7.39,6.5,10.28,7.29,6.87,16.89,9.67,28.6,8.31,3.12-.37,11.42-1.34,11-11.75a4.88,4.88,0,0,1,1-1.68,13.32,13.32,0,0,1,.91-1,4.92,4.92,0,0,1,.69.33,8.2,8.2,0,0,1,.33,3.19,3.48,3.48,0,0,0-.26.3c-6.61,7.88-.88,14.36,2.23,17.86l.09.11c.35.4.72.79,1.09,1.14,1,1,2,1.81,3.07,2.64a33.27,33.27,0,0,1,2.78,2.41,20.66,20.66,0,0,0,14.67,5.74,23,23,0,0,0,3.6-.28A20.38,20.38,0,0,0,529.73,234c2.73-5.46,5.48-11.31,6.45-17.54C539.18,197.29,532.93,177,519.06,160.93Zm13.18,54.95c-.88,5.65-3.48,11.19-6.08,16.38-5.25,10.5-20.2,11.57-27.24,4.43-2.12-2.16-4.8-3.79-6.79-6-.65-.74-1.32-1.49-1.92-2.23h0c-2.1-2.62-3.46-5.37-1.55-8.79h0a12.76,12.76,0,0,1,1.62-2.19c1.32-1.45.91-5.46-.06-7.71-.6-1.4-4.68-2.94-5.55-2.27a14.81,14.81,0,0,0-2,1.85c-1.42,1.53-2.58,3.42-2.5,5,.27,5.86-2.77,7.13-7.46,7.68-9.49,1.12-18.29-.54-25.38-7.25-2.49-2.35-4.18-5.74-5.59-9-1.1-2.55-.51-4.69,1.49-6.61a11.48,11.48,0,0,1,1.32-1.1,9.45,9.45,0,0,0,3.25-6.89c-.06-1.86-2.41-4.31-4.32-5.15-.94-.42-3.29,2.13-4.87,3.48-.51.44-.64,1.35-1,2-1.11,2.51-1.43,5.62-3.17,7.62a6.31,6.31,0,0,1-4.7,2.08c-5,.29-9.65.36-13.64-2.08a15.89,15.89,0,0,1-4.77-4.69c-11.27-16.46-5.27-36.59,14.84-46.7a83.07,83.07,0,0,1,37.85-8.95C503.88,138.56,538.28,177.21,532.24,215.88Zm-92.08-19.33.32-1a20.88,20.88,0,0,1,.82-2.4c.15-.33.27-.69.4-1.06s.51-.47.79-.73.45-.42.71-.64a4.18,4.18,0,0,1,.6.77,5.68,5.68,0,0,1-1.62,3.34A15.64,15.64,0,0,0,440.16,196.55Z"/><path d="M273.28,197.08h0c-2.15-.52-4-1.05-5.4-1.54a35.65,35.65,0,0,1-3.47-1.36,4.91,4.91,0,0,1-.71-.36h1.18c1.11,0,2.94-.05,5.31-.08h0l.2.24c.11.12.21.25.33.37s.26.3.41.45.4.44.61.67l.69.72C272.67,196.48,273,196.78,273.28,197.08Z"/><path d="M275.74,193.48a44.8,44.8,0,0,1-4.65,1.31c-1,.24-2,.49-3.26.75-1.93.4-4.16.82-6.69,1.24.52-.4,1-.81,1.55-1.23s.93-.74,1.39-1.13a1.35,1.35,0,0,0,.19-.16.23.23,0,0,0,.09-.08l.47-.37.62-.55h0C271.94,193.25,276.13,193.32,275.74,193.48Z"/><path d="M375.49,51.3c.55.39,1.14.8,1.77,1.22h0Zm-9.7,3.31h0c.35.48.68,1,1,1.44ZM265.46,193.26h0l-.62.55h-1.18a4.91,4.91,0,0,0,.71.36.23.23,0,0,1-.09.08,1.35,1.35,0,0,1-.19.16c-.46.39-.92.76-1.39,1.13s-1,.83-1.55,1.23c2.53-.42,4.76-.84,6.69-1.24,1.45.49,3.25,1,5.4,1.54h0c-.3-.3-.61-.6-.89-.9l-.69-.72c-.21-.23-.42-.45-.61-.67a44.8,44.8,0,0,0,4.65-1.31C276.13,193.32,271.94,193.25,265.46,193.26Zm-92.21-141-1,1.31,1-1.31Zm-9.68-3.15,2.8-2C165.5,47.78,164.58,48.42,163.57,49.15Zm-42.29,78c0,.2.12.38.17.57.26.83.53,1.67.81,2.5.53,1.59,1.06,3.19,1.63,4.79,0,0,0,0,0,0C123,132.41,122.1,129.8,121.28,127.18Zm-2.73-9.25c.06.28.14.57.22.85.14.5.29,1,.44,1.52.27,1,.56,2,.86,3-.38-1.31-.77-2.62-1.14-3.94C118.8,118.85,118.67,118.38,118.55,117.93Zm-1-3.56c.2.82.43,1.64.66,2.47-.14-.5-.27-1-.4-1.49C117.76,115,117.67,114.7,117.59,114.37Zm-13.8-79c1.37,9.29,2.65,18.64,4,28C106.45,54.05,105.18,44.7,103.79,35.4Zm-2.51-15.87c.89,5.26,1.71,10.55,2.51,15.86C103,30.09,102.18,24.79,101.28,19.53Z"/><path class="cls-2" d="M117.85,115.35c-.09-.33-.18-.65-.26-1,.2.82.43,1.64.66,2.47C118.11,116.34,118,115.85,117.85,115.35Zm1.08,4c-.05-.17-.1-.36-.16-.53.14.5.29,1,.44,1.52C119.1,120,119,119.64,118.93,119.31Z"/><path d="M436.11,2.27A416.73,416.73,0,0,0,316.55,44.92c-2.28,1.23-5.49,2.13-7.89,1.59-25.41-5.78-50.72-6.28-76.1.09-2.2.54-5.22.51-7.05-.6C201.08,31.36,175,20.75,147.63,13,131.79,8.53,115.87,4.18,99.77.68,91.59-1.1,90.9.3,92.55,8.7c2,10.42,4.5,20.77,6.21,31.23,3.5,21.51,6.07,43.19,10.12,64.58,2.2,11.67,7,22.82,9.89,34.39,1.23,5,3,8.89,7.07,12.13,11.24,8.95,16.4,28.87,7.85,42.25-.11.2-.25.39-.37.58a1.43,1.43,0,0,0-.2.68c0,.46,0,1,0,1.72h53.73c-1.14-1-2.23-2-3.31-3-17.43-16.4-25.94-36.2-26.09-60.86a88.32,88.32,0,0,1,8.87,2.2c8.2,3,16.18,6.61,24.5,9.16,5.49,1.67,7.22,4.51,7.59,10.07.48,7.52,2.12,15,3.66,22.42.3,1.5,2.3,2.65,3.53,4,1.12-1.4,2.74-2.65,3.26-4.25a65,65,0,0,0,2-9.45c.78-4.56,1.45-9.14,2.29-14.58,11,4.16,21.17,7.85,31.2,11.81,6.9,2.72,7.41,3.26,4.15,10S241,187,237,193.71c-.67,1.12-1.32,2.24-2,3.37h38.21c-2.15-.52-4-1.05-5.4-1.54-1.93.4-4.16.82-6.69,1.24.52-.4,1-.81,1.55-1.23s.93-.74,1.39-1.13a1.35,1.35,0,0,0,.19-.16.23.23,0,0,0,.09-.08,4.91,4.91,0,0,1-.71-.36h1.18l.62-.55h0c6.48,0,10.67.06,10.28.22a44.8,44.8,0,0,1-4.65,1.31c.19.22.4.44.61.67l.69.72c.28.3.59.6.89.9h34.1l-.89-.9-.68-.72c-.36-.38-.7-.74-1-1.12-.11-.12-.21-.25-.33-.37a2,2,0,0,1-.19-.24h0c-1.06-1.24-2.06-2.49-3-3.78q-.29-.39-.54-.78c-.25-.35-.48-.69-.7-1a2.68,2.68,0,0,1-.18-.28c-.19-.29-.38-.56-.55-.85l-.66-1.11a53.12,53.12,0,0,1-3.24-6.55c-.14-.35-.29-.7-.42-1.06-.05-.13-.11-.27-.16-.41-.15-.37-.29-.76-.42-1.14s-.27-.75-.39-1.13-.29-.86-.43-1.3c-.33-1.07-.64-2.15-.92-3.24-.45-1.7.36-5.13,1.5-5.61,11-4.58,22.09-8.71,33.83-13.22.59,2.95,1,4.92,1.37,6.91.88,5.25,1.42,10.55,2.66,15.7.46,1.92,2.46,3.48,3.76,5.2,1.42-1.78,3.76-3.39,4.09-5.35a208.93,208.93,0,0,0,2.53-21.46c.3-4.28,1.63-6.89,6-8.38,10.05-3.41,19.91-7.37,29.87-11a53.87,53.87,0,0,1,5.43-1.39c0,1.77,0,3.53-.11,5.26-.08,1.54-.18,3.06-.31,4.55-.06.71-.14,1.4-.22,2.11q-.33,2.86-.84,5.64c-.08.5-.19,1-.29,1.49s-.25,1.25-.4,1.85-.33,1.44-.51,2.14c-.14.53-.28,1-.42,1.55-.24.9-.51,1.78-.79,2.65-.22.69-.46,1.38-.7,2.06s-.45,1.27-.7,1.9a1.8,1.8,0,0,1-.08.21c-.16.42-.33.85-.51,1.28-.12.28-.23.57-.36.85-.25.59-.51,1.19-.78,1.77s-.61,1.31-.94,2-.65,1.29-1,1.91-.56,1-.86,1.53q-.68,1.25-1.47,2.46c-.26.44-.54.88-.83,1.31a4.12,4.12,0,0,1-.39.57c-.18.3-.38.6-.59.89s-.52.77-.81,1.14c-.58.81-1.18,1.62-1.81,2.41-.31.4-.63.8-1,1.19-.18.23-.36.46-.57.69s-.56.67-.85,1-.42.49-.64.73-.63.71-1,1.06c-.48.52-1,1-1.47,1.56-.26.28-.52.54-.79.8s-.76.76-1.16,1.13l-.43.42c-.4.39-.81.78-1.23,1.14-.6.55-1.2,1.08-1.82,1.62h0c-.38.34-.77.68-1.17,1a2.31,2.31,0,0,1-.19.16c-.46.39-.93.76-1.4,1.13l-.2.17c-.44.37-.89.72-1.35,1.06h51.47c-1.68-7.47-4.77-14.58-4.5-21.56.43-11.78,7.39-20.76,16.59-27.95,1.67-1.3,3.58-3.1,4-5,5.18-21.55,10.1-43.17,15.11-64.77,4.91-21.23,9.8-42.45,14.86-63.64.9-3.8,2.53-7.42,3.86-11.2C447.89-1.22,441.82,1.16,436.11,2.27ZM166.54,72.49c-1.11,1-2.21,2-3.28,3-.69.66-1.38,1.33-2.06,2A123.87,123.87,0,0,0,151,89.15q-1.38,1.74-2.68,3.52c-9.53,13-17,27.54-24.38,42.34,0,0,0,0,0,0-.57-1.6-1.1-3.2-1.63-4.79-.28-.83-.55-1.67-.81-2.5,0-.19-.12-.37-.17-.57-.43-1.31-.83-2.62-1.21-3.93-.3-1-.59-2-.86-3-.15-.5-.3-1-.44-1.52-.08-.28-.16-.57-.22-.85s-.21-.73-.3-1.09c-.23-.83-.46-1.65-.66-2.47-.26-1-.51-2-.77-3-.66-2.65-1.28-5.3-1.88-8-.29-1.33-.59-2.66-.86-4q-.85-4-1.61-8c-.5-2.67-1-5.33-1.46-8-.24-1.33-.47-2.68-.68-4-.45-2.67-.88-5.35-1.29-8s-.82-5.35-1.21-8c-1.39-9.36-2.67-18.71-4-28h0c-.8-5.31-1.62-10.6-2.51-15.86v0q-.69-3.95-1.4-7.87c-.26-1.31-.51-2.61-.76-3.92h0L134.39,25.9l8.89,4.58,6.7,3.45c3.35,1.74,6.73,3.47,10.11,5.22l10.19,5.25h0c-.93.66-1.78,1.25-2.57,1.82l-1.33.94-2.8,2-1.63,1.15,1.29.23,1.22.22L166,51c.75.12,1.47.25,2.15.38l5.12.88v0l-1,1.31c-.32.43-.65.87-1,1.32l-6,8.16,1.35,1.55L177.59,63l1.9-.28A104.61,104.61,0,0,0,166.54,72.49Zm276.53-55.4c-.24.74-.47,1.47-.65,2.22q-1.08,4.32-2.13,8.66-4.55,18.6-8.6,37.33c-5.08,23.33-9.9,46.72-14.86,70.08a17.32,17.32,0,0,1-1.55,2.73c-11.15-30.68-29.39-54.69-55.59-72.91l12.64,2c.36-.51.74-1,1.1-1.55-1.55-2.21-3.08-4.44-4.69-6.74-.65-.91-1.3-1.85-2-2.8h0c-.34-.48-.67-1-1-1.44h0l1.29-.23,3.75-.68,3.42-.62L375,53l2.31-.43c-.63-.42-1.22-.83-1.77-1.22a1.77,1.77,0,0,1-.32-.21l-.32-.22-.33-.23-5.77-3.94c3.7-2.27,7-4.63,10.53-6.39,1.6-.79,3.18-1.58,4.78-2.35Q403.29,28.44,422.57,19L437,12c3.39-1.67,6.63-3.63,10.7-5.87C446.08,10.05,444.26,13.53,443.07,17.09Z"/><path d="M532.23,215.88c-.87,5.65-3.47,11.19-6.07,16.38-5.25,10.5-20.2,11.57-27.24,4.43-2.12-2.16-4.8-3.79-6.8-6-.65-.74-1.31-1.49-1.91-2.23h0c-2.1-2.62-3.47-5.37-1.55-8.79h0a12.76,12.76,0,0,1,1.62-2.19c1.32-1.45.91-5.46-.06-7.71-.6-1.4-4.68-2.94-5.55-2.27a14.81,14.81,0,0,0-2,1.85c-1.42,1.53-2.58,3.42-2.5,5,.27,5.86-2.77,7.13-7.46,7.68-9.49,1.12-18.29-.53-25.38-7.25-2.49-2.35-4.19-5.74-5.59-9-1.1-2.55-.51-4.69,1.48-6.61a12.55,12.55,0,0,1,1.33-1.1,9.47,9.47,0,0,0,3.25-6.89c-.06-1.86-2.41-4.31-4.32-5.15-.94-.42-3.29,2.13-4.87,3.48-.51.44-.64,1.35-1,2-1.11,2.52-1.43,5.62-3.17,7.62a6.31,6.31,0,0,1-4.7,2.08c-5,.29-9.65.36-13.64-2.08a15.89,15.89,0,0,1-4.77-4.69c-11.28-16.46-5.27-36.59,14.84-46.7a83.07,83.07,0,0,1,37.85-8.95C503.88,138.56,538.28,177.21,532.23,215.88Z"/><path class="cls-2" d="M125.61,153.62c-12.38-12.34-28.3-19.39-43.7-19.39h-.7c-32.1,0-55.46,13-71.38,39.86-14,23.58-13,45.19,2.85,64.23a18.53,18.53,0,0,0,11.71,6c.9.09,1.78.14,2.66.14a25.82,25.82,0,0,0,17.66-7.08q1.07-1,2-1.86c7.18-7,7.74-10.95,3.65-20.64l-.4-.93a2.76,2.76,0,0,1-.26-1.89,2.68,2.68,0,0,1,1.54-1.22,1.67,1.67,0,0,1,.92-.18,1.47,1.47,0,0,1,.52.59,5.92,5.92,0,0,1,.59,1.29,6,6,0,0,1,.31,2.33c-.29,3.45.5,6.22,2.35,8.23,2,2.14,4.93,3.15,9,3.11a47.91,47.91,0,0,0,26.39-7.74c4-2.63,8.7-6.35,9.3-11.67a12.32,12.32,0,0,0-1.87-7.63,31.29,31.29,0,0,0-4.5-5.75,4.88,4.88,0,0,1-.8-1.6,5.26,5.26,0,0,1,1.8-1,9.26,9.26,0,0,1,2.06,1.75,8.23,8.23,0,0,1,.15.95,17.21,17.21,0,0,0,.34,1.91A24.08,24.08,0,0,0,99,199.15c2.67,6,7.49,8.32,14.38,6.75A30.41,30.41,0,0,0,121,203a24.54,24.54,0,0,0,5.3-3.87c.24-.23.48-.47.71-.72a34.76,34.76,0,0,0,3.56-4.54c.13-.19.26-.38.37-.56h0C139,180.67,137.13,165.08,125.61,153.62Zm-1.51,42.11a18.92,18.92,0,0,1-4.36,3.42,25.66,25.66,0,0,1-7.23,2.86c-4.43,1-7.21,0-9-2.86a15.89,15.89,0,0,1-1.86-4.71c-.38-1.47-.27-3.34-1.17-4.32-1.39-1.51-3.51-3.45-5.22-3.35a7.91,7.91,0,0,0-5.71,3.56c-.69,1.31.46,4.43,1.77,5.81a34.17,34.17,0,0,1,2.6,3c4.79,6.28,3.41,10.56-4.82,16a43.94,43.94,0,0,1-24.24,7.08c-4.65.06-7.77-1.56-7.29-7a9.94,9.94,0,0,0-.51-3.93,8.66,8.66,0,0,0-1.7-3.13c-1.34-1.45-3.21-2-5.62-1-3.62,1.48-5.09,4.59-3.43,8.4.77,1.77,1.38,3.27,1.83,4.61,1.33,4.08,1,6.49-1.42,9.55A45.85,45.85,0,0,1,42,234.42a21.77,21.77,0,0,1-17.24,5.91,14.66,14.66,0,0,1-9-4.57C1,218.06,0,198.42,13.26,176.13c14.41-24.27,35.39-38,68.26-37.91,13.66-.11,28.82,5.81,41.28,18.22C134.25,167.85,135,183.93,124.1,195.73Z"/><path d="M124.1,195.73a18.92,18.92,0,0,1-4.36,3.42A25.42,25.42,0,0,1,112.5,202c-4.42,1-7.2,0-9-2.86a15.89,15.89,0,0,1-1.86-4.71c-.38-1.47-.27-3.34-1.17-4.32-1.4-1.51-3.52-3.45-5.23-3.35a8,8,0,0,0-5.71,3.56c-.68,1.31.47,4.43,1.78,5.81a34.17,34.17,0,0,1,2.6,3c4.79,6.28,3.41,10.56-4.82,16a43.94,43.94,0,0,1-24.24,7.08c-4.65.06-7.77-1.56-7.29-7a9.94,9.94,0,0,0-.51-3.93,8.66,8.66,0,0,0-1.7-3.13c-1.34-1.45-3.21-2-5.62-1-3.62,1.48-5.09,4.59-3.43,8.4.76,1.77,1.38,3.27,1.82,4.61,1.34,4.08,1,6.49-1.41,9.55A44.87,44.87,0,0,1,42,234.42a21.77,21.77,0,0,1-17.24,5.91,14.71,14.71,0,0,1-9-4.57C1,218.06,0,198.42,13.26,176.13c14.41-24.27,35.39-38,68.26-37.91,13.66-.11,28.82,5.81,41.28,18.22C134.25,167.85,135,183.93,124.1,195.73Z"/><path class="cls-2" d="M447.69,6.08c-1.61,4-3.43,7.45-4.62,11-.25.74-.47,1.48-.66,2.23-.72,2.88-1.43,5.77-2.12,8.65q-4.55,18.6-8.6,37.33c-5.08,23.33-9.9,46.72-14.86,70.08a17.32,17.32,0,0,1-1.55,2.73c-11.15-30.68-29.39-54.69-55.59-72.91l12.64,2c.36-.51.74-1,1.1-1.55-1.55-2.21-3.08-4.44-4.69-6.74-.64-.92-1.29-1.86-2-2.8h0c-.34-.48-.67-1-1-1.44h0l1.27-.24c1.23-.22,2.45-.43,3.75-.68l3.42-.62L375,53l2.33-.41a0,0,0,0,1,0,0c-.63-.42-1.22-.83-1.77-1.22a1.77,1.77,0,0,1-.32-.21l-.32-.22-.33-.23-5.77-3.94c3.7-2.27,7-4.63,10.53-6.39,1.6-.79,3.18-1.58,4.78-2.35Q403.29,28.44,422.57,19L437,12C440.38,10.28,443.62,8.32,447.69,6.08Z"/><path class="cls-2" d="M179.49,62.74a104.61,104.61,0,0,0-13,9.75c-1.11,1-2.21,2-3.28,3-.69.66-1.38,1.33-2.06,2A123.87,123.87,0,0,0,151,89.15q-1.38,1.74-2.68,3.52c-9.53,13-17,27.54-24.38,42.34,0,0,0,0,0,0-.57-1.6-1.1-3.2-1.63-4.79-.28-.83-.55-1.67-.81-2.5-.8-2.47-1.54-5-2.24-7.45-.23-.79-.46-1.59-.66-2.37-.12-.37-.21-.73-.3-1.09-.23-.83-.46-1.65-.66-2.47-.26-1-.51-2-.77-3-.66-2.65-1.28-5.3-1.88-8-.29-1.33-.59-2.66-.86-4-.56-2.67-1.1-5.32-1.61-8s-1-5.33-1.46-8c-.24-1.33-.47-2.68-.68-4-.45-2.67-.87-5.35-1.29-8s-.82-5.35-1.21-8c-1.39-9.36-2.67-18.71-4-28h0c-.8-5.31-1.62-10.6-2.51-15.86v0c-.45-2.63-.91-5.25-1.4-7.87-.26-1.31-.51-2.61-.76-3.92L134.39,25.9l8.89,4.58,6.7,3.45c3.35,1.74,6.73,3.48,10.11,5.22l10.18,5.26c-.93.66-1.78,1.25-2.57,1.82l-1.33.94-2.8,2-1.63,1.15a0,0,0,0,1,0,0l1.3.22,1.22.22L166,51c.75.12,1.47.25,2.15.38,1.82.31,3.48.61,5.11.9h0l-1,1.31c-.32.43-.65.87-1,1.32l-6,8.16c.45.51.89,1,1.34,1.56L177.59,63Z"/><path class="cls-2" d="M383.73,132.43c0,1.77,0,3.53-.11,5.26-.08,1.54-.18,3.06-.31,4.55-.06.71-.14,1.4-.22,2.11q-.33,2.86-.84,5.64c-.08.5-.19,1-.29,1.49s-.25,1.25-.4,1.85-.33,1.44-.51,2.14c-.14.53-.28,1-.42,1.55-.24.9-.51,1.78-.79,2.65-.22.69-.46,1.38-.7,2.06s-.45,1.27-.7,1.9a1.8,1.8,0,0,1-.08.21c-.16.42-.33.85-.51,1.28-.12.28-.23.57-.36.85-.25.59-.51,1.19-.78,1.77s-.61,1.31-.94,2-.65,1.29-1,1.91-.56,1-.86,1.53q-.68,1.25-1.47,2.46c-.26.44-.54.88-.83,1.31a4.12,4.12,0,0,1-.39.57c-.18.3-.38.6-.59.89s-.52.77-.81,1.14c-.58.81-1.18,1.62-1.81,2.41-.31.4-.63.8-1,1.19-.18.23-.36.46-.57.69s-.56.67-.85,1-.42.49-.64.73-.63.71-1,1.06c-.48.52-1,1-1.47,1.56-.26.28-.52.54-.79.8s-.77.76-1.16,1.13l-.43.42c-.4.39-.81.76-1.23,1.14-.6.55-1.2,1.08-1.82,1.62h0c-.38.34-.77.68-1.17,1a2.31,2.31,0,0,1-.19.16c-.46.39-.93.76-1.4,1.13l-.2.17c-.44.37-.89.72-1.35,1.06a184.75,184.75,0,0,1-22.39,2.28c-1.44.06-2.82.09-4.16.09a82.76,82.76,0,0,1-18.92-2.07h0l-.89-.9-.68-.72c-.36-.38-.7-.74-1-1.12-.11-.12-.21-.25-.33-.37a2,2,0,0,1-.19-.24h0c-1.06-1.24-2.06-2.49-3-3.78q-.29-.39-.54-.78c-.25-.35-.48-.69-.7-1a2.68,2.68,0,0,1-.18-.28c-.19-.29-.38-.56-.55-.85l-.66-1.11a53.12,53.12,0,0,1-3.24-6.55c-.14-.35-.29-.7-.42-1.06-.05-.13-.11-.27-.16-.41-.15-.37-.29-.76-.42-1.14s-.27-.75-.39-1.13-.29-.86-.43-1.3c-.33-1.07-.64-2.15-.92-3.24-.45-1.7.36-5.13,1.5-5.61,11-4.58,22.09-8.71,33.83-13.22.59,2.95,1,4.92,1.37,6.91.88,5.25,1.42,10.55,2.66,15.7.46,1.92,2.46,3.48,3.76,5.2,1.42-1.78,3.76-3.39,4.09-5.35a208.93,208.93,0,0,0,2.53-21.46c.3-4.28,1.63-6.89,6-8.38,10.05-3.41,19.91-7.37,29.87-11A53.87,53.87,0,0,1,383.73,132.43Z"/><path class="cls-2" d="M248.43,173.7c-3.32,6.82-7.4,13.26-11.42,20-.67,1.12-1.32,2.24-2,3.37a88.84,88.84,0,0,1-19.62,2.07c-1.43,0-2.89,0-4.4-.09a197.66,197.66,0,0,1-26.39-2.8h2.2c-1.14-1-2.23-2-3.31-3-17.43-16.4-25.94-36.2-26.09-60.86a88.32,88.32,0,0,1,8.87,2.2c8.2,3,16.18,6.61,24.5,9.16,5.49,1.67,7.22,4.51,7.59,10.07.48,7.52,2.12,15,3.66,22.42.3,1.5,2.3,2.65,3.53,4,1.12-1.4,2.74-2.65,3.26-4.25a65,65,0,0,0,2-9.45c.78-4.56,1.45-9.14,2.29-14.58,11,4.16,21.17,7.85,31.2,11.81C251.18,166.46,251.69,167,248.43,173.7Z"/></svg>